<?xml version="1.0" encoding="utf-8"?>
<!-- Generator: Adobe Illustrator 27.9.4, SVG Export Plug-In . SVG Version: 9.03 Build 54784)  -->
<svg version="1.1" id="PRINT_x5F_DE" xmlns="http://www.w3.org/2000/svg" xmlns:xlink="http://www.w3.org/1999/xlink" x="0px"
	 y="0px" viewBox="0 0 888.2 380" style="enable-background:new 0 0 888.2 380;" xml:space="preserve">
<style type="text/css">
	.st0{fill:#010202;}
	.st1{fill-rule:evenodd;clip-rule:evenodd;fill:#010202;}
</style>
<g id="Special_Chars">
	<g>
		<path class="st0" d="M73.6,86.2h-1.3c-0.2,0-0.4-0.1-0.5-0.3L70.1,84C70,83.9,70,83.8,70,83.8s0.1-0.1,0.3-0.1h2
			c0.3,0,0.5,0.1,0.6,0.4l0.9,1.8C73.9,86.1,73.9,86.2,73.6,86.2z"/>
	</g>
	<g>
		<path class="st0" d="M664.1,89.6h-3c-0.2,0-0.3-0.1-0.3-0.3v-0.9c0-0.2,0.1-0.4,0.3-0.4h3c0.2,0,0.3,0.1,0.3,0.4v0.9
			C664.4,89.5,664.3,89.6,664.1,89.6z"/>
	</g>
	<g>
		<path class="st0" d="M713.6,86.4h6.1c0.1,0,0.2,0,0.3,0.1c0.1,0.1,0.1,0.2,0.1,0.3v0.9c0,0.1,0,0.2-0.1,0.3
			c-0.1,0.1-0.2,0.1-0.3,0.1h-6.1c-0.1,0-0.2,0-0.3-0.1c-0.1-0.1-0.1-0.2-0.1-0.3v-0.9c0-0.1,0-0.2,0.1-0.3
			C713.3,86.4,713.4,86.4,713.6,86.4z M713.6,89.5h6.1c0.1,0,0.2,0,0.3,0.1c0.1,0.1,0.1,0.2,0.1,0.3v0.9c0,0.1,0,0.2-0.1,0.3
			c-0.1,0.1-0.2,0.1-0.3,0.1h-6.1c-0.1,0-0.2,0-0.3-0.1s-0.1-0.2-0.1-0.3v-0.9c0-0.1,0-0.2,0.1-0.3S713.4,89.5,713.6,89.5z"/>
	</g>
	<g>
		<path class="st0" d="M739.5,147.8v-0.7c0-0.2,0.1-0.3,0.3-0.3h0.8c0.1,0,0.2-0.1,0.2-0.2v-8.8c0-0.1-0.1-0.2-0.2-0.2h-0.8
			c-0.2,0-0.3-0.1-0.3-0.3v-0.7c0-0.2,0.1-0.3,0.3-0.3h2.3c0.2,0,0.3,0.1,0.3,0.3v11.2c0,0.2-0.1,0.4-0.3,0.4h-2.3
			C739.6,148.2,739.5,148.1,739.5,147.8z"/>
	</g>
	<g>
		<path class="st0" d="M801.5,136.3h1.2c0.2,0,0.3,0.1,0.4,0.3c0.3,0.9,0.9,2.5,1.8,4.8c0.9,2.3,1.5,3.9,1.8,4.8
			c0.1,0.2,0,0.3-0.3,0.3h-1.2c-0.2,0-0.3-0.1-0.4-0.3l-3.6-9.6C801.2,136.4,801.2,136.3,801.5,136.3z"/>
	</g>
	<g>
		<path class="st0" d="M566.6,249.8v1.2c0,0.3-0.1,0.6-0.4,1l-1.1,1.6c-0.1,0.1-0.2,0.2-0.3,0.2c-0.2,0-0.3-0.1-0.3-0.3v-3.7
			c0-0.2,0.1-0.3,0.3-0.3h1.4C566.5,249.5,566.6,249.6,566.6,249.8z"/>
	</g>
	<g>
		<path class="st0" d="M620.6,249.8v2c0,0.2-0.1,0.3-0.3,0.3h-1.4c-0.2,0-0.3-0.1-0.3-0.3v-2c0-0.2,0.1-0.3,0.3-0.3h1.4
			C620.5,249.5,620.6,249.6,620.6,249.8z"/>
	</g>
	<g>
		<path class="st0" d="M672.2,252.1h-1.2c-0.3,0-0.3-0.1-0.3-0.3c0.3-0.9,0.9-2.5,1.8-4.8c0.9-2.3,1.5-3.9,1.8-4.8
			c0.1-0.2,0.2-0.3,0.4-0.3h1.2c0.3,0,0.3,0.1,0.3,0.3l-3.6,9.6C672.5,252,672.4,252.1,672.2,252.1z"/>
	</g>
	<g>
		<path class="st0" d="M647.7,191.5v2c0,0.2-0.1,0.3-0.3,0.3h-1.4c-0.2,0-0.3-0.1-0.3-0.4v-1.9c0-0.2,0.1-0.3,0.3-0.3h1.4
			C647.6,191.2,647.7,191.3,647.7,191.5z M647.7,197v1.2c0,0.3-0.1,0.6-0.4,1l-1.1,1.6c-0.1,0.1-0.2,0.2-0.3,0.2
			c-0.2,0-0.3-0.1-0.3-0.3v-3.7c0-0.2,0.1-0.3,0.3-0.3h1.4C647.6,196.7,647.7,196.8,647.7,197z"/>
	</g>
	<g>
		<path class="st0" d="M700.8,192.2h-0.3c-0.3,0-0.4-0.1-0.4-0.4l-0.5-2.5c0-0.2,0.1-0.3,0.4-0.3h1.5c0.3,0,0.4,0.1,0.3,0.3
			l-0.5,2.5C701.2,192.1,701,192.2,700.8,192.2z"/>
	</g>
	<g>
		<path class="st0" d="M688.4,148.2h-2.3c-0.2,0-0.3-0.1-0.3-0.4v-11.2c0-0.2,0.1-0.3,0.3-0.3h2.3c0.2,0,0.3,0.1,0.3,0.3v0.7
			c0,0.2-0.1,0.3-0.3,0.3h-0.8c-0.1,0-0.2,0.1-0.2,0.2v8.8c0,0.1,0.1,0.2,0.2,0.2h0.8c0.2,0,0.3,0.1,0.3,0.3v0.7
			C688.7,148.1,688.6,148.2,688.4,148.2z"/>
	</g>
</g>
<g id="Letters">
	<g>
		<path class="st0" d="M184.2,251.7v-1c0-0.4,0.1-0.6,0.2-0.8l4.2-6.3v-0.1h-3.8c-0.2,0-0.3-0.1-0.3-0.3v-1.2c0-0.2,0.1-0.3,0.3-0.3
			h5.7c0.2,0,0.3,0.1,0.3,0.3v1.4c0,0.3-0.1,0.6-0.2,0.8l-4,5.8v0.1h4.1c0.2,0,0.3,0.1,0.3,0.3v1.2c0,0.2-0.1,0.4-0.3,0.4h-6.1
			C184.3,252.1,184.2,252,184.2,251.7z"/>
	</g>
	<g>
		<path class="st0" d="M239.5,252.1h-1.6c-0.1,0-0.2,0-0.2-0.1s0-0.2,0-0.2l2.5-4.9l-2.4-4.7c0-0.1,0-0.2,0-0.2
			c0-0.1,0.1-0.1,0.2-0.1h1.5c0.3,0,0.4,0.1,0.5,0.3l1.5,3.4h0.1l1.5-3.4c0.1-0.2,0.3-0.3,0.5-0.3h1.6c0.1,0,0.2,0,0.2,0.1
			s0.1,0.2,0,0.2l-2.4,4.7l2.5,4.9c0.1,0.1,0.1,0.2,0,0.3c0,0.1-0.1,0.1-0.2,0.1h-1.6c-0.2,0-0.4-0.1-0.5-0.3l-1.6-3.5h-0.1
			l-1.6,3.5C239.8,252,239.7,252.1,239.5,252.1z"/>
	</g>
	<g>
		<path class="st0" d="M296.5,252.1h-1.7c-0.8,0-1.5-0.2-2-0.7s-0.7-1.1-0.7-1.9v-5.1c0-0.8,0.2-1.5,0.7-1.9c0.5-0.4,1.1-0.7,2-0.7
			h1.7c0.8,0,1.5,0.2,1.9,0.7c0.5,0.5,0.7,1.1,0.7,1.9v0.8c0,0.2-0.1,0.4-0.4,0.4h-1.3c-0.2,0-0.3-0.1-0.3-0.4v-0.7
			c0-0.3-0.1-0.6-0.2-0.7c-0.1-0.1-0.4-0.2-0.7-0.2h-1.1c-0.3,0-0.6,0.1-0.7,0.2s-0.2,0.4-0.2,0.7v4.9c0,0.3,0.1,0.6,0.2,0.7
			c0.1,0.1,0.4,0.2,0.7,0.2h1.1c0.3,0,0.6-0.1,0.7-0.2c0.1-0.1,0.2-0.4,0.2-0.7v-0.7c0-0.2,0.1-0.4,0.3-0.4h1.3
			c0.2,0,0.4,0.1,0.4,0.4v0.8c0,0.8-0.2,1.5-0.7,1.9S297.4,252.1,296.5,252.1z"/>
	</g>
	<g>
		<path class="st0" d="M350.6,252.1h-2.1c-0.2,0-0.4-0.1-0.4-0.3l-2.5-9.6c-0.1-0.2,0-0.4,0.3-0.4h1.5c0.2,0,0.3,0.1,0.4,0.3
			l1.7,7.9h0.1l1.7-7.9c0-0.2,0.2-0.3,0.4-0.3h1.5c0.3,0,0.4,0.1,0.3,0.4l-2.5,9.6C351,252,350.8,252.1,350.6,252.1z"/>
	</g>
	<g>
		<path class="st0" d="M400.2,251.7v-9.6c0-0.2,0.1-0.3,0.3-0.3h3.8c0.8,0,1.5,0.2,2,0.7c0.5,0.4,0.7,1.1,0.7,1.9v0.7
			c0,0.9-0.4,1.5-1.3,1.8c0.4,0.1,0.8,0.2,1,0.5c0.3,0.3,0.4,0.7,0.4,1.2v1c0,0.8-0.2,1.5-0.7,1.9c-0.5,0.4-1.1,0.7-1.9,0.7h-4
			C400.3,252.1,400.2,252,400.2,251.7z M402.4,246h1.6c0.3,0,0.6-0.1,0.8-0.2c0.2-0.1,0.2-0.4,0.2-0.7v-0.6c0-0.3-0.1-0.6-0.2-0.7
			c-0.2-0.1-0.4-0.2-0.7-0.2h-1.6c-0.1,0-0.2,0.1-0.2,0.2v2.1C402.2,245.9,402.3,246,402.4,246z M402.4,250.4h1.8
			c0.4,0,0.6-0.1,0.8-0.2c0.2-0.1,0.2-0.4,0.2-0.7v-0.9c0-0.3-0.1-0.6-0.2-0.7s-0.4-0.2-0.8-0.2h-1.8c-0.1,0-0.2,0.1-0.2,0.2v2.4
			C402.2,250.3,402.3,250.4,402.4,250.4z"/>
	</g>
	<g>
		<path class="st0" d="M455.6,252.1h-1.3c-0.2,0-0.3-0.1-0.3-0.3v-9.6c0-0.2,0.1-0.3,0.3-0.3h1.2c0.2,0,0.4,0.1,0.4,0.2l3.2,6.1h0.1
			v-6c0-0.2,0.1-0.3,0.3-0.3h1.3c0.2,0,0.3,0.1,0.3,0.3v9.6c0,0.2-0.1,0.3-0.3,0.3h-1.2c-0.2,0-0.4-0.1-0.5-0.3l-3.2-6h-0.1v5.9
			C455.9,252,455.8,252.1,455.6,252.1z"/>
	</g>
	<g>
		<path class="st0" d="M513.6,241.8h2.4c0.2,0,0.3,0.1,0.3,0.3v9.6c0,0.2-0.1,0.3-0.3,0.3h-1.3c-0.2,0-0.3-0.1-0.3-0.3v-7.6h-0.1
			l-1.6,5.4c-0.1,0.2-0.2,0.3-0.4,0.3h-1.3c-0.2,0-0.3-0.1-0.4-0.3l-1.7-5.4h-0.1v7.6c0,0.1,0,0.2-0.1,0.3s-0.1,0.1-0.3,0.1h-1.3
			c-0.2,0-0.3-0.1-0.3-0.3v-9.6c0-0.2,0.1-0.3,0.3-0.3h2.4c0.1,0,0.3,0.1,0.3,0.2l1.7,5.6h0.1l1.7-5.6
			C513.4,241.9,513.5,241.8,513.6,241.8z"/>
	</g>
	<g>
		<path class="st0" d="M158.3,199.3h-1.5c-0.2,0-0.3-0.1-0.2-0.3l2.5-9.6c0.1-0.2,0.2-0.3,0.5-0.3h2.1c0.3,0,0.4,0.1,0.5,0.3
			l2.5,9.6c0.1,0.2,0,0.3-0.2,0.3H163c-0.1,0-0.2,0-0.2-0.1c0,0-0.1-0.1-0.1-0.3l-0.4-1.8h-3.1l-0.4,1.8c0,0.1-0.1,0.2-0.1,0.3
			C158.5,199.3,158.4,199.3,158.3,199.3z M160.6,191l-1.2,4.6h2.4L160.6,191L160.6,191z"/>
	</g>
	<g>
		<path class="st0" d="M211.1,196.7v-0.3c0-0.2,0.1-0.3,0.3-0.3h1.4c0.2,0,0.3,0.1,0.3,0.3v0.1c0,0.4,0.1,0.7,0.2,0.8
			c0.2,0.1,0.5,0.2,0.9,0.2h0.8c0.4,0,0.7-0.1,0.9-0.2c0.2-0.2,0.2-0.5,0.2-0.9v-0.2c0-0.3-0.1-0.5-0.4-0.7
			c-0.3-0.2-0.6-0.3-0.9-0.3c-0.4,0-0.8-0.1-1.2-0.2c-0.4-0.1-0.8-0.2-1.2-0.4c-0.4-0.1-0.7-0.4-0.9-0.8c-0.3-0.4-0.4-1-0.4-1.6
			v-0.6c0-0.8,0.2-1.5,0.7-1.9c0.5-0.5,1.1-0.7,2-0.7h1.6c0.8,0,1.5,0.2,2,0.7c0.5,0.5,0.7,1.1,0.7,1.9v0.3c0,0.2-0.1,0.3-0.3,0.3
			h-1.4c-0.2,0-0.3-0.1-0.3-0.3v-0.1c0-0.4-0.1-0.7-0.2-0.8c-0.2-0.1-0.5-0.2-0.9-0.2h-0.6c-0.4,0-0.7,0.1-0.9,0.2
			c-0.2,0.2-0.2,0.5-0.2,1v0.3c0,0.5,0.4,0.8,1.3,0.9c0.9,0.1,1.7,0.3,2.4,0.5c0.4,0.2,0.7,0.4,0.9,0.9c0.3,0.4,0.4,0.9,0.4,1.6v0.5
			c0,0.8-0.2,1.5-0.7,1.9c-0.5,0.5-1.1,0.7-2,0.7h-1.7c-0.8,0-1.5-0.2-2-0.7S211.1,197.5,211.1,196.7z"/>
	</g>
	<g>
		<path class="st0" d="M265.2,199v-9.6c0-0.2,0.1-0.3,0.3-0.3h4c0.8,0,1.5,0.2,1.9,0.7c0.5,0.5,0.7,1.1,0.7,1.9v5.1
			c0,0.8-0.2,1.5-0.7,1.9c-0.5,0.5-1.1,0.7-1.9,0.7h-4C265.4,199.3,265.2,199.2,265.2,199z M267.5,197.6h1.7c0.3,0,0.6-0.1,0.7-0.2
			c0.1-0.1,0.2-0.4,0.2-0.7v-4.9c0-0.3-0.1-0.6-0.2-0.7c-0.1-0.1-0.4-0.2-0.7-0.2h-1.7c-0.1,0-0.2,0.1-0.2,0.2v6.4
			C267.3,197.5,267.3,197.6,267.5,197.6z"/>
	</g>
	<g>
		<path class="st0" d="M321.8,199.3h-1.4c-0.2,0-0.3-0.1-0.3-0.3v-9.6c0-0.2,0.1-0.3,0.3-0.3h5.1c0.2,0,0.3,0.1,0.3,0.3v1.1
			c0,0.2-0.1,0.3-0.3,0.3h-3.2c-0.1,0-0.2,0.1-0.2,0.2v2.5c0,0.1,0.1,0.2,0.2,0.2h2.7c0.2,0,0.3,0.1,0.3,0.3v1.1
			c0,0.2-0.1,0.4-0.3,0.4h-2.7c-0.1,0-0.2,0.1-0.2,0.2v3.4C322.1,199.2,322,199.3,321.8,199.3z"/>
	</g>
	<g>
		<path class="st0" d="M377.5,199.3h-1.7c-0.8,0-1.5-0.2-2-0.7c-0.5-0.4-0.7-1.1-0.7-1.9v-5.1c0-0.8,0.2-1.5,0.7-1.9
			c0.5-0.4,1.1-0.7,2-0.7h1.7c0.8,0,1.5,0.2,1.9,0.7c0.5,0.5,0.7,1.1,0.7,1.9v0.5c0,0.2-0.1,0.4-0.3,0.4h-1.4
			c-0.2,0-0.3-0.1-0.3-0.4v-0.4c0-0.3-0.1-0.6-0.2-0.7c-0.1-0.1-0.4-0.2-0.7-0.2h-1c-0.3,0-0.6,0.1-0.7,0.2s-0.2,0.4-0.2,0.7v4.9
			c0,0.3,0.1,0.6,0.2,0.7s0.4,0.2,0.7,0.2h1c0.3,0,0.6-0.1,0.7-0.2c0.1-0.1,0.2-0.4,0.2-0.7v-1c0-0.1-0.1-0.2-0.2-0.2h-1
			c-0.2,0-0.3-0.1-0.3-0.3V194c0-0.2,0.1-0.3,0.3-0.3h2.8c0.2,0,0.4,0.1,0.4,0.4v2.7c0,0.8-0.2,1.5-0.7,1.9
			C379,199.1,378.3,199.3,377.5,199.3z"/>
	</g>
	<g>
		<path class="st0" d="M428.8,199.3h-1.4c-0.2,0-0.3-0.1-0.3-0.3v-9.6c0-0.2,0.1-0.3,0.3-0.3h1.4c0.2,0,0.3,0.1,0.3,0.3v3.8
			c0,0.1,0.1,0.2,0.2,0.2h2.7c0.1,0,0.2-0.1,0.2-0.2v-3.8c0-0.2,0.1-0.3,0.3-0.3h1.4c0.2,0,0.3,0.1,0.3,0.3v9.6
			c0,0.2-0.1,0.3-0.3,0.3h-1.4c-0.2,0-0.3-0.1-0.3-0.3v-3.7c0-0.1-0.1-0.2-0.2-0.2h-2.7c-0.1,0-0.2,0.1-0.2,0.2v3.7
			C429.1,199.2,429,199.3,428.8,199.3z"/>
	</g>
	<g>
		<path class="st0" d="M486.2,189.1h1.3c0.2,0,0.3,0.1,0.3,0.3v7.4c0,0.8-0.2,1.5-0.7,1.9c-0.5,0.5-1.1,0.7-1.9,0.7h-1.6
			c-0.8,0-1.5-0.2-2-0.7c-0.5-0.4-0.7-1.1-0.7-1.9v-1.5c0-0.2,0.1-0.3,0.3-0.3h1.4c0.2,0,0.3,0.1,0.3,0.3v1.4c0,0.3,0.1,0.6,0.2,0.7
			c0.1,0.1,0.4,0.2,0.7,0.2h0.9c0.3,0,0.6-0.1,0.7-0.2s0.2-0.4,0.2-0.7v-7.2C485.8,189.2,485.9,189.1,486.2,189.1z"/>
	</g>
	<g>
		<path class="st0" d="M536.9,199.3h-1.4c-0.2,0-0.3-0.1-0.3-0.3v-9.6c0-0.2,0.1-0.3,0.3-0.3h1.4c0.2,0,0.3,0.1,0.3,0.3v4.6h0
			c0.1-0.3,0.3-0.6,0.5-1l2.4-3.6c0.1-0.2,0.3-0.3,0.6-0.3h1.6c0.1,0,0.2,0,0.2,0.1c0,0.1,0,0.2-0.1,0.3l-3,4.2l3.4,5.3
			c0.1,0.1,0.1,0.2,0,0.3s-0.1,0.1-0.3,0.1h-1.2c-0.4,0-0.6-0.1-0.8-0.3l-2.4-3.9l-1,1.2v2.7C537.2,199.2,537.1,199.3,536.9,199.3z"
			/>
	</g>
	<g>
		<path class="st0" d="M595.7,199.3h-5.3c-0.2,0-0.3-0.1-0.3-0.3v-9.6c0-0.2,0.1-0.3,0.3-0.3h1.4c0.2,0,0.3,0.1,0.3,0.3v8
			c0,0.1,0.1,0.2,0.2,0.2h3.4c0.2,0,0.3,0.1,0.3,0.4v1.1C596,199.2,595.9,199.3,595.7,199.3z"/>
	</g>
	<g>
		<path class="st0" d="M149.5,148.7h-1.2c-0.3,0-0.5-0.1-0.6-0.3l-1-1.8h-0.4c-0.8,0-1.5-0.2-2-0.7c-0.5-0.4-0.7-1.1-0.7-1.9v-5.1
			c0-0.8,0.2-1.5,0.7-1.9c0.5-0.4,1.1-0.7,2-0.7h1.8c0.8,0,1.5,0.2,2,0.7c0.5,0.4,0.7,1.1,0.7,1.9v5.1c0,0.7-0.2,1.3-0.5,1.7
			c-0.3,0.4-0.8,0.7-1.4,0.8l1,1.8c0.1,0.1,0.1,0.2,0,0.3C149.7,148.7,149.6,148.7,149.5,148.7z M146.5,144.9h1.1
			c0.3,0,0.6-0.1,0.7-0.2s0.2-0.4,0.2-0.7V139c0-0.3-0.1-0.6-0.2-0.7s-0.4-0.2-0.7-0.2h-1.1c-0.3,0-0.6,0.1-0.7,0.2
			c-0.1,0.1-0.2,0.4-0.2,0.7v4.9c0,0.3,0.1,0.6,0.2,0.7C146,144.8,146.2,144.9,146.5,144.9z"/>
	</g>
	<g>
		<path class="st0" d="M199.2,146.6H197c-0.2,0-0.4-0.1-0.4-0.3l-1.7-9.6c0-0.2,0.1-0.3,0.3-0.3h1.7c0.2,0,0.4,0.1,0.4,0.3l0.9,7.9
			h0.1l1.5-7.9c0-0.2,0.1-0.3,0.3-0.3h1.8c0.2,0,0.3,0.1,0.4,0.3l1.6,8h0.1l0.9-7.9c0-0.2,0.1-0.4,0.4-0.4h1.7
			c0.3,0,0.4,0.1,0.3,0.4l-1.7,9.6c0,0.2-0.2,0.3-0.4,0.3H203c-0.2,0-0.4-0.1-0.4-0.3l-1.4-7.5h-0.1l-1.5,7.5
			C199.6,146.5,199.5,146.6,199.2,146.6z"/>
	</g>
	<g>
		<path class="st0" d="M257.9,146.6h-5.2c-0.2,0-0.3-0.1-0.3-0.3v-9.6c0-0.2,0.1-0.3,0.3-0.3h5.2c0.2,0,0.3,0.1,0.3,0.3v1.1
			c0,0.2-0.1,0.3-0.3,0.3h-3.3c-0.1,0-0.2,0.1-0.2,0.2v2.1c0,0.1,0.1,0.2,0.2,0.2h2.7c0.2,0,0.3,0.1,0.3,0.3v1.1
			c0,0.2-0.1,0.3-0.3,0.3h-2.7c-0.1,0-0.2,0.1-0.2,0.2v2.2c0,0.1,0.1,0.2,0.2,0.2h3.3c0.2,0,0.3,0.1,0.3,0.3v1.1
			C258.2,146.5,258.1,146.6,257.9,146.6z"/>
	</g>
	<g>
		<path class="st0" d="M307.5,146.6h-1.4c-0.2,0-0.3-0.1-0.3-0.3v-9.6c0-0.2,0.1-0.3,0.3-0.3h3.8c0.8,0,1.5,0.2,2,0.7
			c0.5,0.5,0.7,1.1,0.7,1.9v1.2c0,1.2-0.5,2-1.4,2.4v0.1l1.7,3.6c0.1,0.3,0,0.4-0.3,0.4h-1.3c-0.2,0-0.3,0-0.4-0.1s-0.2-0.1-0.2-0.3
			l-1.6-3.5H308c-0.1,0-0.2,0.1-0.2,0.2v3.3C307.8,146.5,307.7,146.6,307.5,146.6z M308,141.2h1.6c0.3,0,0.6-0.1,0.8-0.2
			c0.2-0.1,0.2-0.4,0.2-0.7V139c0-0.3-0.1-0.6-0.2-0.7c-0.2-0.1-0.4-0.2-0.8-0.2H308c-0.1,0-0.2,0.1-0.2,0.2v2.8
			C307.8,141.1,307.9,141.2,308,141.2z"/>
	</g>
	<g>
		<path class="st0" d="M363.8,146.6h-1.3c-0.2,0-0.4-0.1-0.4-0.3v-8c0-0.1-0.1-0.2-0.2-0.2h-1.8c-0.2,0-0.3-0.1-0.3-0.3v-1.1
			c0-0.2,0.1-0.3,0.3-0.3h6c0.2,0,0.3,0.1,0.3,0.3v1.1c0,0.2-0.1,0.3-0.3,0.3h-1.8c-0.1,0-0.2,0.1-0.2,0.2v8
			C364.1,146.5,364,146.6,363.8,146.6z"/>
	</g>
	<g>
		<path class="st0" d="M417.8,146.6h-1.4c-0.2,0-0.3-0.1-0.3-0.3v-3.4l-2.9-6.2c0-0.1,0-0.2,0-0.2c0-0.1,0.1-0.1,0.2-0.1h1.7
			c0.2,0,0.3,0.1,0.4,0.3l1.6,3.9h0.1l1.6-3.9c0.1-0.2,0.2-0.3,0.4-0.3h1.7c0.1,0,0.2,0,0.2,0.1c0,0.1,0,0.1,0,0.3l-2.9,6.2v3.4
			C418.1,146.5,418,146.6,417.8,146.6z"/>
	</g>
	<g>
		<path class="st0" d="M472.9,136.3h1.3c0.2,0,0.4,0.1,0.4,0.3v7.4c0,0.8-0.2,1.5-0.7,1.9c-0.5,0.5-1.1,0.7-1.9,0.7h-1.8
			c-0.8,0-1.5-0.2-2-0.7c-0.5-0.4-0.7-1.1-0.7-1.9v-7.3c0-0.2,0.1-0.3,0.3-0.3h1.4c0.2,0,0.3,0.1,0.3,0.3v7.2c0,0.3,0.1,0.6,0.2,0.7
			s0.4,0.2,0.7,0.2h1.1c0.3,0,0.6-0.1,0.7-0.2c0.1-0.1,0.2-0.4,0.2-0.7v-7.2C472.6,136.4,472.7,136.3,472.9,136.3z"/>
	</g>
	<g>
		<path class="st0" d="M526.1,136.7v9.6c0,0.2-0.1,0.3-0.3,0.3h-1.4c-0.2,0-0.3-0.1-0.3-0.3v-9.6c0-0.2,0.1-0.3,0.3-0.3h1.4
			C526,136.3,526.1,136.4,526.1,136.7z"/>
	</g>
	<g>
		<path class="st0" d="M580,146.6h-1.8c-0.8,0-1.5-0.2-2-0.7c-0.5-0.4-0.7-1.1-0.7-1.9v-5.1c0-0.8,0.2-1.5,0.7-1.9
			c0.5-0.4,1.1-0.7,2-0.7h1.8c0.8,0,1.5,0.2,2,0.7c0.5,0.4,0.7,1.1,0.7,1.9v5.1c0,0.8-0.2,1.5-0.7,1.9
			C581.5,146.4,580.9,146.6,580,146.6z M578.5,144.9h1.1c0.3,0,0.6-0.1,0.7-0.2c0.1-0.1,0.2-0.4,0.2-0.7V139c0-0.3-0.1-0.6-0.2-0.7
			c-0.1-0.1-0.4-0.2-0.7-0.2h-1.1c-0.3,0-0.6,0.1-0.7,0.2s-0.2,0.4-0.2,0.7v4.9c0,0.3,0.1,0.6,0.2,0.7S578.2,144.9,578.5,144.9z"/>
	</g>
	<g>
		<path class="st0" d="M631.6,146.6h-1.4c-0.2,0-0.3-0.1-0.3-0.3v-9.6c0-0.2,0.1-0.3,0.3-0.3h3.9c0.8,0,1.5,0.2,1.9,0.7
			c0.5,0.5,0.7,1.1,0.7,1.9v1.5c0,0.8-0.2,1.5-0.7,1.9c-0.5,0.5-1.1,0.7-1.9,0.7h-2c-0.1,0-0.2,0.1-0.2,0.2v3
			C631.9,146.5,631.8,146.6,631.6,146.6z M632.1,141.3h1.7c0.3,0,0.6-0.1,0.7-0.2s0.2-0.4,0.2-0.7V139c0-0.3-0.1-0.6-0.2-0.7
			s-0.4-0.2-0.7-0.2h-1.7c-0.1,0-0.2,0.1-0.2,0.2v2.9C631.9,141.2,632,141.3,632.1,141.3z"/>
	</g>
</g>
<g id="Numbers">
	<g>
		<path class="st0" d="M120.3,86.5v-1.3c0-0.2,0.1-0.3,0.2-0.4l1.5-0.9c0.2-0.1,0.5-0.2,0.6-0.2h1.3c0.2,0,0.3,0.1,0.3,0.3v9.6
			c0,0.1,0,0.2-0.1,0.3c0,0-0.1,0.1-0.2,0.1h-1.4c-0.2,0-0.3-0.1-0.3-0.3v-7.8l-1.6,0.9C120.4,86.8,120.3,86.7,120.3,86.5z"/>
	</g>
	<g>
		<path class="st0" d="M173.4,93.6V92c0-0.6,0.3-1.1,0.8-1.6l2.9-2.5c0.5-0.4,0.7-0.8,0.7-1.3v-0.5c0-0.3-0.1-0.6-0.2-0.7
			c-0.2-0.1-0.4-0.2-0.8-0.2h-0.6c-0.3,0-0.6,0.1-0.7,0.2c-0.1,0.1-0.2,0.4-0.2,0.7v0.5c0,0.2-0.1,0.4-0.3,0.4h-1.4
			c-0.2,0-0.3-0.1-0.3-0.4v-0.5c0-0.8,0.2-1.5,0.7-1.9c0.5-0.4,1.1-0.7,2-0.7h1.2c0.8,0,1.5,0.2,2,0.7c0.5,0.4,0.7,1.1,0.7,1.9v0.6
			c0,0.8-0.3,1.5-1,2.1l-3,2.6c-0.1,0.1-0.2,0.2-0.2,0.4v0.3h3.8c0.2,0,0.3,0.1,0.3,0.3v1.1c0,0.2-0.1,0.3-0.3,0.3h-5.8
			C173.5,93.9,173.4,93.8,173.4,93.6z"/>
	</g>
	<g>
		<path class="st0" d="M230,87.9h0.8c0.4,0,0.6-0.1,0.8-0.2c0.2-0.1,0.2-0.4,0.2-0.7v-0.8c0-0.3-0.1-0.6-0.2-0.7
			c-0.2-0.1-0.4-0.2-0.8-0.2h-0.8c-0.3,0-0.6,0.1-0.7,0.2s-0.2,0.4-0.2,0.7v0.4c0,0.2-0.1,0.3-0.3,0.3h-1.4c-0.2,0-0.3-0.1-0.3-0.3
			v-0.4c0-0.8,0.2-1.5,0.7-1.9c0.5-0.4,1.1-0.7,2-0.7h1.4c0.8,0,1.5,0.2,2,0.7c0.5,0.4,0.7,1.1,0.7,1.9V87c0,0.9-0.4,1.5-1.3,1.7
			c0.8,0.2,1.3,0.8,1.3,1.7v0.8c0,0.8-0.2,1.5-0.7,1.9c-0.5,0.4-1.1,0.7-2,0.7h-1.4c-0.8,0-1.5-0.2-2-0.7c-0.5-0.4-0.7-1.1-0.7-1.9
			v-0.4c0-0.2,0.1-0.4,0.3-0.4h1.4c0.2,0,0.3,0.1,0.3,0.4v0.4c0,0.3,0.1,0.6,0.2,0.7s0.4,0.2,0.7,0.2h0.8c0.4,0,0.6-0.1,0.8-0.2
			c0.2-0.1,0.2-0.4,0.2-0.7v-0.8c0-0.3-0.1-0.6-0.2-0.7c-0.2-0.1-0.4-0.2-0.8-0.2H230c-0.2,0-0.3-0.1-0.3-0.3v-1
			C229.7,88,229.8,87.9,230,87.9z"/>
	</g>
	<g>
		<path class="st0" d="M286.9,93.9h-1.2c-0.2,0-0.3-0.1-0.3-0.3V92h-4c-0.2,0-0.3-0.1-0.4-0.2c-0.1-0.1-0.2-0.3-0.2-0.4v-0.6
			c0-0.3,0.1-0.6,0.2-0.8l3.2-5.9c0.1-0.2,0.2-0.3,0.3-0.4c0.1-0.1,0.2-0.1,0.4-0.1h1.8c0.2,0,0.3,0.1,0.4,0.2
			c0.1,0.1,0.2,0.3,0.2,0.4v6.1h1.2c0.2,0,0.3,0.1,0.3,0.3v1.1c0,0.2-0.1,0.4-0.3,0.4h-1.2v1.5c0,0.1,0,0.2-0.1,0.3
			C287.1,93.9,287.1,93.9,286.9,93.9z M285.4,90.3v-4.9l-2.6,4.9H285.4z"/>
	</g>
	<g>
		<path class="st0" d="M338.9,88.7h-0.8c-0.3,0-0.5,0.1-0.6,0.3s-0.3,0.3-0.5,0.3h-1.3c-0.2,0-0.3-0.1-0.3-0.3v-5.1
			c0-0.2,0.1-0.3,0.3-0.3h5.6c0.2,0,0.3,0.1,0.3,0.3v1.2c0,0.2-0.1,0.3-0.3,0.3h-3.9v2.4c0.2-0.5,0.6-0.8,1.3-0.8h0.7
			c1.7,0,2.5,0.8,2.5,2.5v1.8c0,0.8-0.2,1.5-0.7,1.9c-0.5,0.5-1.1,0.7-1.9,0.7h-1.4c-0.8,0-1.5-0.2-2-0.7c-0.5-0.4-0.7-1.1-0.7-1.9
			V91c0-0.2,0.1-0.4,0.3-0.4h1.4c0.2,0,0.3,0.1,0.3,0.4v0.3c0,0.3,0.1,0.6,0.2,0.7c0.1,0.1,0.4,0.2,0.7,0.2h0.8
			c0.3,0,0.6-0.1,0.8-0.2s0.2-0.4,0.2-0.7v-1.4c0-0.4-0.1-0.8-0.2-0.9C339.6,88.7,339.3,88.7,338.9,88.7z"/>
	</g>
	<g>
		<path class="st0" d="M393.4,93.9h-1.6c-0.8,0-1.5-0.2-2-0.7c-0.5-0.4-0.7-1.1-0.7-1.9v-5.1c0-0.8,0.2-1.5,0.7-1.9
			c0.5-0.4,1.1-0.7,2-0.7h3.3c0.2,0,0.3,0.1,0.3,0.3V85c0,0.2-0.1,0.3-0.3,0.3h-2.9c-0.3,0-0.6,0.1-0.7,0.2s-0.2,0.4-0.2,0.7v1.1
			h2.2c0.8,0,1.5,0.2,2,0.7c0.5,0.4,0.7,1.1,0.7,1.9v1.3c0,0.8-0.2,1.5-0.7,1.9C394.9,93.7,394.3,93.9,393.4,93.9z M392.2,92.1h0.9
			c0.3,0,0.6-0.1,0.7-0.2s0.2-0.4,0.2-0.7v-1.1c0-0.3-0.1-0.6-0.2-0.7s-0.4-0.2-0.7-0.2h-1.8v2c0,0.3,0.1,0.6,0.2,0.7
			S391.8,92.1,392.2,92.1z"/>
	</g>
	<g>
		<path class="st0" d="M445.8,93.9h-1.5c-0.1,0-0.2,0-0.2-0.1s0-0.1,0-0.2l3.4-8.1h-3.8c-0.2,0-0.3-0.1-0.3-0.3v-1.2
			c0-0.2,0.1-0.3,0.3-0.3h5.6c0.2,0,0.3,0.1,0.3,0.3v1.3c0,0.2-0.1,0.5-0.2,0.9l-3.1,7.4C446.3,93.8,446.1,93.9,445.8,93.9z"/>
	</g>
	<g>
		<path class="st0" d="M501.4,93.9h-1.7c-0.9,0-1.5-0.2-2-0.6c-0.5-0.4-0.7-1-0.7-1.9v-0.7c0-1,0.4-1.6,1.1-1.9
			c-0.7-0.3-1.1-0.9-1.1-2v-0.7c0-0.8,0.2-1.4,0.7-1.9c0.5-0.4,1.1-0.6,2-0.6h1.7c0.8,0,1.5,0.2,1.9,0.6c0.5,0.4,0.7,1,0.7,1.9v0.7
			c0,0.5-0.1,0.9-0.3,1.3c-0.2,0.4-0.4,0.6-0.8,0.7c0.7,0.3,1,0.9,1,2v0.7c0,0.8-0.2,1.4-0.7,1.9S502.3,93.9,501.4,93.9z M500,87.9
			h1.1c0.3,0,0.6-0.1,0.7-0.2s0.2-0.4,0.2-0.8v-0.7c0-0.3-0.1-0.6-0.2-0.7s-0.4-0.2-0.7-0.2H500c-0.3,0-0.6,0.1-0.7,0.2
			s-0.2,0.4-0.2,0.7v0.7c0,0.3,0.1,0.6,0.2,0.8S499.7,87.9,500,87.9z M500,92.1h1.1c0.3,0,0.6-0.1,0.7-0.2c0.1-0.1,0.2-0.4,0.2-0.7
			v-0.7c0-0.3-0.1-0.6-0.2-0.8s-0.4-0.2-0.7-0.2H500c-0.3,0-0.6,0.1-0.7,0.2s-0.2,0.4-0.2,0.8v0.7c0,0.3,0.1,0.6,0.2,0.7
			C499.5,92.1,499.7,92.1,500,92.1z"/>
	</g>
	<g>
		<path class="st0" d="M555.3,93.9h-3.4c-0.2,0-0.4-0.1-0.4-0.3v-1.1c0-0.2,0.1-0.3,0.4-0.3h3.1c0.3,0,0.6-0.1,0.7-0.2
			s0.2-0.4,0.2-0.7v-1h-2.2c-0.8,0-1.5-0.2-2-0.7c-0.5-0.4-0.7-1.1-0.7-1.9v-1.4c0-0.8,0.2-1.5,0.7-1.9c0.5-0.4,1.1-0.7,2-0.7h1.6
			c0.8,0,1.5,0.2,2,0.7c0.5,0.4,0.7,1.1,0.7,1.9v5.1c0,0.8-0.2,1.5-0.7,1.9C556.8,93.7,556.1,93.9,555.3,93.9z M554.1,88.5h1.9v-2.2
			c0-0.3-0.1-0.6-0.2-0.7c-0.1-0.1-0.4-0.2-0.7-0.2h-0.9c-0.3,0-0.6,0.1-0.7,0.2c-0.1,0.1-0.2,0.4-0.2,0.7v1.2
			c0,0.3,0.1,0.6,0.2,0.7C553.5,88.4,553.7,88.5,554.1,88.5z"/>
	</g>
	<g>
		<path class="st0" d="M609.4,93.9h-1.6c-0.8,0-1.5-0.2-2-0.7c-0.5-0.4-0.7-1.1-0.7-1.9v-5.1c0-0.8,0.2-1.5,0.7-1.9
			c0.5-0.4,1.1-0.7,2-0.7h1.6c0.8,0,1.5,0.2,1.9,0.7c0.5,0.5,0.7,1.1,0.7,1.9v5.1c0,0.8-0.2,1.5-0.7,1.9
			C610.9,93.7,610.2,93.9,609.4,93.9z M608.1,92.1h0.9c0.3,0,0.6-0.1,0.7-0.2s0.2-0.4,0.2-0.7v-4.9c0-0.3-0.1-0.6-0.2-0.7
			s-0.4-0.2-0.7-0.2h-0.9c-0.3,0-0.6,0.1-0.7,0.2s-0.2,0.4-0.2,0.7v4.9c0,0.3,0.1,0.6,0.2,0.7S607.8,92.1,608.1,92.1z"/>
	</g>
</g>
<g id="ALTGR">
	<g>
		<path class="st0" d="M348.6,111.3h-0.8c-0.6,0-1.1-0.2-1.5-0.5c-0.4-0.3-0.5-0.8-0.5-1.5v-0.9h-0.7c-0.2,0-0.2-0.1-0.2-0.2v-0.4
			c0-0.2,0.1-0.2,0.2-0.2h0.7v-0.8h-0.7c-0.2,0-0.2-0.1-0.2-0.2v-0.4c0-0.2,0.1-0.2,0.2-0.2h0.7v-1c0-0.6,0.2-1.1,0.5-1.5
			c0.4-0.3,0.9-0.5,1.5-0.5h0.8c0.6,0,1.1,0.2,1.5,0.5c0.4,0.3,0.5,0.8,0.5,1.5v0.3c0,0.1-0.1,0.2-0.2,0.2h-0.8
			c-0.1,0-0.2-0.1-0.2-0.2v-0.3c0-0.6-0.3-0.9-0.9-0.9H348c-0.6,0-1,0.3-1,0.9v0.9h1.5c0.2,0,0.2,0.1,0.2,0.2v0.4
			c0,0.2-0.1,0.2-0.2,0.2H347v0.8h1.5c0.2,0,0.2,0.1,0.2,0.2v0.4c0,0.2-0.1,0.2-0.2,0.2H347v0.9c0,0.6,0.3,0.9,1,0.9h0.5
			c0.6,0,0.9-0.3,0.9-0.9V109c0-0.1,0.1-0.2,0.2-0.2h0.8c0.1,0,0.2,0.1,0.2,0.2v0.3c0,0.6-0.2,1.1-0.5,1.5
			C349.8,111.1,349.3,111.3,348.6,111.3z"/>
	</g>
</g>
<g id="SHIFT">
	<g>
		<path class="st0" d="M65.3,107.8c-0.4,0-0.8-0.1-1.4-0.2c-0.6-0.1-1-0.2-1.2-0.2s-0.5,0.1-0.8,0.2c-0.3,0.1-0.4,0.2-0.4,0.2
			c-0.1,0-0.2-0.1-0.2-0.2V107c0-0.2,0.1-0.3,0.3-0.4c0.3-0.1,0.7-0.2,1-0.2c0.3,0,0.8,0.1,1.3,0.2c0.6,0.1,1,0.2,1.3,0.2
			s0.5-0.1,0.8-0.2c0.3-0.1,0.4-0.2,0.4-0.2c0.1,0,0.2,0.1,0.2,0.2v0.6c0,0.2-0.1,0.3-0.3,0.4C66,107.7,65.7,107.8,65.3,107.8z"/>
	</g>
	<g>
		<path class="st0" d="M654.3,112.7h-4.4c-0.1,0-0.2-0.1-0.2-0.2v-0.3c0-0.1,0.1-0.2,0.2-0.2h4.4c0.1,0,0.2,0.1,0.2,0.2v0.3
			C654.5,112.6,654.5,112.7,654.3,112.7z"/>
	</g>
	<g>
		<path class="st0" d="M707.8,106.6h1.9c0.2,0,0.2,0.1,0.2,0.3v0.5c0,0.2-0.1,0.2-0.2,0.2h-1.9v1.9c0,0.2-0.1,0.3-0.3,0.3H707
			c-0.2,0-0.2-0.1-0.2-0.3v-1.9h-1.9c-0.2,0-0.2-0.1-0.2-0.2v-0.5c0-0.2,0.1-0.3,0.2-0.3h1.9v-1.9c0-0.2,0.1-0.3,0.2-0.3h0.6
			c0.2,0,0.3,0.1,0.3,0.3V106.6z"/>
	</g>
	<g>
		<path class="st0" d="M110.5,104.9v-1.7c0-0.1,0.1-0.2,0.2-0.2h0.9c0.1,0,0.2,0.1,0.2,0.2v1.7c0,1-0.1,2.1-0.2,3.3
			c0,0.2-0.1,0.2-0.2,0.2H111c-0.1,0-0.2-0.1-0.2-0.2C110.6,107,110.5,105.9,110.5,104.9z M111.9,109.5v1.6c0,0.1-0.1,0.2-0.2,0.2
			h-0.9c-0.1,0-0.2-0.1-0.2-0.2v-1.6c0-0.1,0.1-0.2,0.2-0.2h0.9C111.8,109.3,111.9,109.3,111.9,109.5z"/>
	</g>
	<g>
		<path class="st0" d="M170.2,112h-2.3c-0.9,0-1.7-0.3-2.3-0.9c-0.6-0.6-0.9-1.3-0.9-2.3v-2.2c0-0.9,0.3-1.7,0.9-2.3
			c0.6-0.6,1.3-0.9,2.2-0.9h2.6c0.7,0,1.2,0.2,1.7,0.6c0.4,0.4,0.6,0.9,0.6,1.6v2.8c0,0.5-0.2,0.9-0.5,1.2c-0.3,0.3-0.7,0.5-1.3,0.5
			h-0.6c-0.2,0-0.4,0-0.5-0.1s-0.2-0.2-0.2-0.4v-0.1h-0.1c-0.2,0.5-0.7,0.7-1.3,0.7c-0.5,0-1-0.2-1.3-0.5c-0.3-0.3-0.5-0.8-0.5-1.4
			v-0.9c0-0.6,0.2-1.1,0.5-1.5c0.3-0.4,0.8-0.5,1.4-0.5h2.1c0.1,0,0.2,0.1,0.2,0.2v3.8c0,0.1,0.1,0.1,0.2,0.1h0c0.7,0,1-0.3,1-1
			v-2.7c0-0.5-0.2-0.8-0.5-1.1c-0.3-0.3-0.7-0.4-1.2-0.4h-2.5c-0.7,0-1.3,0.2-1.8,0.7c-0.4,0.4-0.7,1.1-0.7,1.8v2.1
			c0,0.8,0.2,1.4,0.7,1.8c0.5,0.4,1.1,0.7,1.8,0.7h2.4c0.1,0,0.2,0.1,0.2,0.2v0.3C170.4,112,170.3,112,170.2,112z M169.6,108.1v-1.7
			c0-0.1,0-0.1-0.1-0.1h-0.9c-0.6,0-0.9,0.3-0.9,1v1c0,0.6,0.3,0.9,0.9,0.9h0C169.2,109.2,169.6,108.9,169.6,108.1z"/>
	</g>
	<g>
		<path class="st0" d="M225.7,104.9c0.1,0,0.2,0.1,0.2,0.2v0.6c0,0.2-0.1,0.2-0.2,0.2h-1.3l-0.6,2.4h1.2c0.1,0,0.2,0.1,0.2,0.2v0.6
			c0,0.1-0.1,0.2-0.2,0.2h-1.4l-0.4,1.7c0,0.2-0.1,0.2-0.2,0.2h-0.6c-0.2,0-0.2-0.1-0.2-0.3l0.4-1.7h-1.8l-0.4,1.7
			c-0.1,0.2-0.1,0.2-0.3,0.2h-0.6c-0.2,0-0.2-0.1-0.2-0.3l0.4-1.7h-1.1c-0.1,0-0.2-0.1-0.2-0.2v-0.6c0-0.2,0.1-0.2,0.2-0.2h1.4
			l0.6-2.4h-1.2c-0.2,0-0.2-0.1-0.2-0.2v-0.6c0-0.1,0.1-0.2,0.2-0.2h1.5l0.4-1.7c0-0.2,0.1-0.2,0.2-0.2h0.6c0.2,0,0.2,0.1,0.2,0.3
			l-0.4,1.7h1.8l0.4-1.7c0-0.2,0.1-0.2,0.3-0.2h0.6c0.2,0,0.2,0.1,0.2,0.3l-0.4,1.7H225.7z M222.7,108.3l0.6-2.4h-1.8l-0.6,2.4
			H222.7z"/>
	</g>
	<g>
		<path class="st0" d="M275.4,112.6h-0.6c-0.1,0-0.2-0.1-0.2-0.2v-1.1h-0.2c-0.6,0-1.1-0.2-1.5-0.5c-0.4-0.4-0.5-0.9-0.5-1.5V109
			c0-0.2,0.1-0.2,0.2-0.2h0.8c0.1,0,0.2,0.1,0.2,0.2v0.2c0,0.4,0.1,0.6,0.2,0.8c0.2,0.2,0.4,0.2,0.8,0.2h0.7c0.4,0,0.6-0.1,0.8-0.3
			c0.2-0.2,0.2-0.4,0.2-0.8v-0.4c0-0.4-0.1-0.6-0.3-0.7c-0.2-0.1-0.6-0.2-1-0.2c-0.6,0-1.1-0.1-1.3-0.1s-0.5-0.2-0.7-0.3
			c-0.4-0.3-0.7-0.9-0.7-1.7v-0.6c0-0.6,0.2-1.1,0.5-1.5c0.4-0.4,0.8-0.5,1.5-0.5h0.2v-1.1c0-0.1,0.1-0.2,0.2-0.2h0.6
			c0.1,0,0.2,0.1,0.2,0.2v1.1h0.1c0.6,0,1.1,0.2,1.4,0.5c0.3,0.4,0.5,0.9,0.5,1.5v0.3c0,0.2-0.1,0.2-0.2,0.2h-0.8
			c-0.2,0-0.2-0.1-0.2-0.2v-0.2c0-0.4-0.1-0.6-0.2-0.8c-0.2-0.2-0.4-0.2-0.8-0.2h-0.6c-0.4,0-0.6,0.1-0.8,0.3
			c-0.2,0.2-0.2,0.5-0.2,0.9v0.4c0,0.3,0.1,0.6,0.3,0.7c0.2,0.1,0.6,0.2,1,0.2l0.7,0c0.6,0,1.1,0.2,1.5,0.5c0.4,0.3,0.6,0.8,0.6,1.6
			v0.6c0,0.6-0.2,1.1-0.5,1.5c-0.4,0.4-0.8,0.5-1.5,0.5h-0.1v1.1C275.7,112.5,275.6,112.6,275.4,112.6z"/>
	</g>
	<g>
		<path class="st0" d="M327.8,102.9h0.6c0.9,0,1.4,0.5,1.4,1.4v1.1c0,1-0.5,1.4-1.4,1.4h-0.6c-0.9,0-1.4-0.5-1.4-1.4v-1.1
			C326.3,103.4,326.8,102.9,327.8,102.9z M328.2,103.7h-0.3c-0.3,0-0.4,0.1-0.5,0.2s-0.1,0.3-0.1,0.6v1c0,0.3,0,0.5,0.1,0.6
			s0.3,0.2,0.5,0.2h0.3c0.3,0,0.4-0.1,0.5-0.2c0.1-0.1,0.1-0.3,0.1-0.6v-1c0-0.3,0-0.4-0.1-0.6C328.6,103.7,328.5,103.7,328.2,103.7
			z M329,111.3h-0.5c-0.2,0-0.2-0.1-0.2-0.2c0.2-0.5,0.7-1.8,1.6-4c0.9-2.1,1.4-3.4,1.6-3.9c0.1-0.2,0.2-0.2,0.3-0.2h0.5
			c0.2,0,0.2,0.1,0.2,0.2l-3.2,7.9C329.3,111.2,329.2,111.3,329,111.3z M332.5,107.4h0.6c0.9,0,1.4,0.5,1.4,1.4v1.1
			c0,1-0.5,1.4-1.4,1.4h-0.6c-0.9,0-1.4-0.5-1.4-1.4v-1.1C331.1,107.8,331.6,107.4,332.5,107.4z M333,108.1h-0.3
			c-0.3,0-0.5,0.1-0.5,0.2c-0.1,0.1-0.1,0.3-0.1,0.6v1c0,0.3,0,0.5,0.1,0.6c0.1,0.1,0.3,0.2,0.5,0.2h0.3c0.3,0,0.4-0.1,0.5-0.2
			s0.1-0.3,0.1-0.6v-1c0-0.3-0.1-0.5-0.1-0.6S333.2,108.1,333,108.1z"/>
	</g>
	<g>
		<path class="st0" d="M381.3,106.6h-0.7c-0.2,0-0.2-0.1-0.2-0.2l1.6-3.1c0.1-0.1,0.1-0.2,0.2-0.3c0.1,0,0.2-0.1,0.3-0.1h0.9
			c0.1,0,0.2,0,0.3,0.1s0.1,0.1,0.2,0.3l1.6,3.1c0.1,0.2,0,0.2-0.2,0.2h-0.7c-0.1,0-0.2-0.1-0.3-0.2l-1.4-2.6l-1.3,2.6
			C381.5,106.5,381.4,106.6,381.3,106.6z"/>
	</g>
	<g>
		<path class="st0" d="M437.3,111.3h-0.9c-0.6,0-1.1-0.2-1.5-0.5s-0.5-0.8-0.5-1.5v-0.9c0-0.4,0.1-0.8,0.3-1.1
			c0.2-0.3,0.6-0.5,1-0.5c-0.4-0.5-0.5-1-0.5-1.5v-0.3c0-0.6,0.2-1.1,0.6-1.5s0.9-0.5,1.5-0.5h0.4c0.6,0,1.1,0.2,1.5,0.5
			c0.4,0.3,0.5,0.8,0.5,1.5v0.5c0,0.2-0.1,0.2-0.2,0.2h-0.8c-0.1,0-0.2-0.1-0.2-0.2v-0.5c0-0.6-0.3-0.9-0.9-0.9h-0.2
			c-0.6,0-0.9,0.3-0.9,0.9v0.3c0,0.4,0.2,0.8,0.6,1.2l0.7,0.8h3c0.1,0,0.2,0.1,0.2,0.2v0.7c0,0.1-0.1,0.2-0.2,0.2h-2l2.3,2.8
			c0,0,0,0.1,0,0.1c0,0,0,0.1-0.1,0.1h-1c-0.2,0-0.3-0.1-0.4-0.2l-0.6-0.8C438.7,111,438.1,111.3,437.3,111.3z M436.6,110.2h0.7
			c0.5,0,0.8-0.2,0.8-0.7l-1.8-2c-0.5,0-0.8,0.4-0.8,1v0.7C435.6,109.9,435.9,110.2,436.6,110.2z"/>
	</g>
	<g>
		<path class="st0" d="M489.8,103.3v-0.1c0-0.1,0.1-0.2,0.2-0.2h0.5c0.1,0,0.2,0.1,0.2,0.2v0.1c0,0.5-0.1,1-0.4,1.6c0,0,0,0,0.1-0.1
			s0.1-0.1,0.2-0.2c0.1-0.1,0.2-0.2,0.3-0.2c0.3-0.2,0.5-0.3,0.8-0.4l0.2-0.1c0.1,0,0.2,0,0.3,0.1l0.2,0.5c0,0.1,0,0.2-0.1,0.3
			c-0.5,0.2-1.1,0.2-1.8,0.1c0,0,0.2,0.1,0.4,0.2c0.5,0.3,0.8,0.6,1.1,1c0.1,0.1,0.1,0.2,0,0.3l-0.4,0.3c-0.1,0.1-0.2,0.1-0.3-0.1
			c-0.3-0.4-0.6-0.9-0.7-1.7c-0.1,0.7-0.3,1.2-0.5,1.6l-0.1,0.1c-0.1,0.1-0.2,0.1-0.3,0l-0.4-0.3c-0.1-0.1-0.2-0.2-0.1-0.3
			c0.3-0.5,0.8-0.8,1.4-1.2c-0.7,0.1-1.3,0.1-1.7,0l-0.2-0.1c-0.1-0.1-0.2-0.1-0.1-0.3l0.2-0.5c0-0.1,0.1-0.2,0.3-0.1
			c0.5,0.1,1,0.4,1.5,0.9C490,104.2,489.8,103.7,489.8,103.3z"/>
	</g>
	<g>
		<path class="st0" d="M544.6,103.9L544.6,103.9c-0.8,0-1.2,0.5-1.2,1.5v4.9c0,1,0.4,1.5,1.2,1.5h0c0.1,0,0.2,0.1,0.2,0.2v0.6
			c0,0.1,0,0.1,0,0.1c0,0-0.1,0-0.2,0h-0.1c-0.7,0-1.2-0.2-1.6-0.6c-0.4-0.4-0.6-1.1-0.6-1.9v-4.6c0-0.8,0.2-1.5,0.6-1.9
			s0.9-0.6,1.6-0.6h0c0.1,0,0.1,0,0.2,0c0,0,0,0.1,0,0.1v0.6C544.8,103.8,544.7,103.9,544.6,103.9z"/>
	</g>
	<g>
		<path class="st0" d="M596.3,112.4v-0.6c0-0.1,0.1-0.2,0.2-0.2h0c0.4,0,0.7-0.1,0.9-0.4c0.2-0.2,0.3-0.6,0.3-1.1v-4.9
			c0-0.5-0.1-0.9-0.3-1.1s-0.5-0.4-0.9-0.4h0c-0.1,0-0.2-0.1-0.2-0.2v-0.6c0-0.1,0.1-0.2,0.2-0.2h0c0.7,0,1.2,0.2,1.6,0.6
			c0.4,0.4,0.6,1.1,0.6,1.9v4.6c0,0.9-0.2,1.5-0.6,1.9c-0.4,0.4-1,0.6-1.6,0.6h0C596.4,112.6,596.3,112.6,596.3,112.4z"/>
	</g>
	<g>
		<path class="st0" d="M730.7,157.7v1.5c0,0.5,0.2,0.8,0.6,0.8c0.1,0,0.2,0.1,0.2,0.2v0.7c0,0.2-0.1,0.2-0.3,0.2
			c-0.4,0-0.6,0.3-0.6,0.8v1.5c0,1.3-0.6,2-1.8,2h-0.1c-0.2,0-0.2-0.1-0.2-0.2v-0.5c0-0.1,0.1-0.2,0.2-0.2h0c0.3,0,0.5-0.1,0.6-0.2
			c0.1-0.2,0.2-0.4,0.2-0.7v-1.7c0-0.7,0.3-1.1,0.8-1.3c-0.5-0.2-0.8-0.6-0.8-1.3v-1.7c0-0.3-0.1-0.6-0.2-0.7
			c-0.1-0.2-0.3-0.2-0.6-0.2h0c-0.2,0-0.2-0.1-0.2-0.2v-0.5c0-0.1,0.1-0.2,0.2-0.2h0.1C730.1,155.7,730.7,156.3,730.7,157.7z"/>
	</g>
	<g>
		<path class="st0" d="M677.2,155.7L677.2,155.7c0.2,0,0.3,0.1,0.3,0.2v0.5c0,0.1-0.1,0.2-0.2,0.2h0c-0.3,0-0.5,0.1-0.6,0.2
			c-0.1,0.2-0.2,0.4-0.2,0.7v1.7c0,0.7-0.3,1.1-0.8,1.3c0.5,0.1,0.8,0.6,0.8,1.3v1.7c0,0.3,0.1,0.6,0.2,0.7c0.1,0.2,0.3,0.2,0.6,0.2
			h0c0.1,0,0.2,0.1,0.2,0.2v0.5c0,0.1-0.1,0.2-0.2,0.2h-0.1c-1.2,0-1.8-0.7-1.8-2v-1.5c0-0.5-0.2-0.8-0.6-0.8
			c-0.2,0-0.2-0.1-0.2-0.2v-0.7c0-0.1,0.1-0.2,0.2-0.2c0.4,0,0.6-0.3,0.6-0.8v-1.5C675.5,156.3,676,155.7,677.2,155.7z"/>
	</g>
	<g>
		<path class="st0" d="M636.1,210.3v1.6c0,0.1-0.1,0.2-0.2,0.2h-1.1c-0.2,0-0.3-0.1-0.3-0.2v-1.5c0-0.1,0.1-0.2,0.3-0.2h1.1
			C636,210.1,636.1,210.2,636.1,210.3z M636.1,214.9v1.6c0,0.1-0.1,0.2-0.2,0.2h-1.1c-0.2,0-0.3-0.1-0.3-0.2v-1.6
			c0-0.1,0.1-0.2,0.3-0.2h1.1C636,214.7,636.1,214.8,636.1,214.9z"/>
	</g>
	<g>
		<path class="st0" d="M689.2,211.8H689c-0.2,0-0.2-0.1-0.3-0.3l-0.3-2.8c0-0.2,0.1-0.2,0.2-0.2h0.9c0.2,0,0.2,0.1,0.2,0.2l-0.3,2.8
			C689.4,211.7,689.3,211.8,689.2,211.8z M691.6,211.8h-0.2c-0.2,0-0.3-0.1-0.3-0.3l-0.3-2.8c0-0.2,0-0.2,0.2-0.2h0.9
			c0.2,0,0.2,0.1,0.2,0.2l-0.3,2.8C691.9,211.7,691.8,211.8,691.6,211.8z"/>
	</g>
	<g>
		<path class="st0" d="M558.9,263.1v0.7c0,0.2-0.1,0.3-0.2,0.3l-4.1,1.2l4.1,1.2c0.1,0,0.2,0.1,0.2,0.3v0.7c0,0.2-0.1,0.2-0.3,0.2
			l-4.8-1.6c-0.2-0.1-0.3-0.2-0.3-0.4V265c0-0.2,0.1-0.3,0.3-0.4l4.8-1.7C558.8,262.8,558.9,262.9,558.9,263.1z"/>
	</g>
	<g>
		<path class="st0" d="M607.6,263.7v-0.7c0-0.2,0.1-0.2,0.3-0.2l4.8,1.7c0.2,0.1,0.3,0.2,0.3,0.4v0.6c0,0.2-0.1,0.3-0.3,0.4
			l-4.8,1.6c-0.2,0.1-0.3,0-0.3-0.2v-0.7c0-0.2,0.1-0.3,0.2-0.3l4-1.2l-4-1.2C607.7,264,607.6,263.9,607.6,263.7z"/>
	</g>
	<g>
		<path class="st0" d="M664.2,266v0.4c0,0.1-0.1,0.2-0.2,0.2h-0.8c-0.1,0-0.2-0.1-0.2-0.2V266c0-0.3,0-0.6,0.1-0.8
			c0.1-0.2,0.3-0.4,0.5-0.6l0.6-0.5c0.3-0.2,0.5-0.5,0.5-0.8v-0.2c0-0.6-0.3-0.9-1-0.9h-0.4c-0.3,0-0.6,0.1-0.7,0.2
			c-0.1,0.2-0.2,0.4-0.2,0.7v0.4c0,0.2-0.1,0.2-0.2,0.2h-0.8c-0.1,0-0.2-0.1-0.2-0.2v-0.4c0-0.6,0.2-1.1,0.5-1.5
			c0.4-0.3,0.8-0.5,1.5-0.5h0.7c0.6,0,1.1,0.2,1.5,0.5s0.5,0.8,0.5,1.5v0.3c0,0.4-0.2,0.8-0.6,1.2l-0.8,0.6
			c-0.2,0.1-0.3,0.3-0.3,0.4S664.2,265.8,664.2,266z M664.2,267.7v1.6c0,0.1-0.1,0.2-0.2,0.2h-0.9c-0.1,0-0.2-0.1-0.2-0.2v-1.6
			c0-0.1,0.1-0.2,0.2-0.2h0.9C664.2,267.5,664.2,267.5,664.2,267.7z"/>
	</g>
	<g>
		<path class="st0" d="M793.4,155.9v7.9c0,0.1-0.1,0.2-0.3,0.2h-0.5c-0.2,0-0.3-0.1-0.3-0.2v-7.9c0-0.1,0.1-0.2,0.3-0.2h0.5
			C793.3,155.7,793.4,155.7,793.4,155.9z"/>
	</g>
</g>
<g id="Arrows">
	<g>
		<path class="st0" d="M694.3,303l3.4-3.4l-1-1c-0.1-0.1-0.3-0.1-0.4,0l-4.2,4.2c-0.1,0.1-0.1,0.3,0,0.4l4.2,4.2
			c0.1,0.1,0.3,0.1,0.4,0l1-1L694.3,303z"/>
		<polygon class="st0" points="697.7,301.2 695.9,303 697.7,304.7 		"/>
	</g>
	<g>
		<path class="st0" d="M811.5,303l-3.4,3.4l1,1c0.1,0.1,0.3,0.1,0.4,0l4.2-4.2c0.1-0.1,0.1-0.3,0-0.4l-4.2-4.2
			c-0.1-0.1-0.3-0.1-0.4,0l-1,1L811.5,303z"/>
		<polygon class="st0" points="808.1,304.7 809.8,303 808.1,301.2 		"/>
	</g>
	<g>
		<path class="st0" d="M753,292.7l3.4,3.4l1-1c0.1-0.1,0.1-0.3,0-0.4l-4.2-4.2c-0.1-0.1-0.3-0.1-0.4,0l-4.2,4.2
			c-0.1,0.1-0.1,0.3,0,0.4l1,1L753,292.7z"/>
		<polygon class="st0" points="754.7,296.1 753,294.3 751.3,296.1 		"/>
	</g>
	<g>
		<path class="st0" d="M753,323.3l-3.4-3.4l-1,1c-0.1,0.1-0.1,0.3,0,0.4l4.2,4.2c0.1,0.1,0.3,0.1,0.4,0l4.2-4.2
			c0.1-0.1,0.1-0.3,0-0.4l-1-1L753,323.3z"/>
		<polygon class="st0" points="751.3,319.9 753,321.6 754.7,319.9 		"/>
	</g>
</g>
<g id="Commands_Top">
	<g>
		<path class="st0" d="M69.5,52h-2.9c-0.1,0-0.2-0.1-0.2-0.2v-5.5c0-0.1,0.1-0.2,0.2-0.2h2.9c0.1,0,0.1,0.1,0.1,0.2v0.5
			c0,0.1,0,0.2-0.1,0.2h-2.1c-0.1,0-0.1,0-0.1,0.1v1.5c0,0.1,0,0.1,0.1,0.1h1.7c0.1,0,0.2,0.1,0.2,0.2v0.5c0,0.1-0.1,0.2-0.2,0.2
			h-1.7c-0.1,0-0.1,0-0.1,0.1v1.6c0,0.1,0,0.1,0.1,0.1h2.1c0.1,0,0.1,0.1,0.1,0.2v0.5C69.7,51.9,69.6,52,69.5,52z"/>
		<path class="st0" d="M70.9,50.6v-0.2c0-0.1,0.1-0.2,0.2-0.2h0.6c0.1,0,0.2,0.1,0.2,0.2v0.2c0,0.3,0.1,0.4,0.2,0.5
			c0.1,0.1,0.3,0.2,0.6,0.2h0.6c0.3,0,0.4-0.1,0.6-0.2c0.1-0.1,0.2-0.3,0.2-0.6v-0.2c0-0.2-0.1-0.3-0.2-0.5
			c-0.1-0.1-0.3-0.2-0.5-0.2c-0.2,0-0.5-0.1-0.7-0.1s-0.5-0.1-0.7-0.2s-0.4-0.2-0.5-0.4c-0.1-0.2-0.2-0.5-0.2-0.8v-0.4
			c0-0.4,0.1-0.8,0.4-1s0.6-0.4,1-0.4h1c0.4,0,0.8,0.1,1,0.4s0.4,0.6,0.4,1v0.2c0,0.1-0.1,0.2-0.2,0.2h-0.6c-0.1,0-0.2-0.1-0.2-0.2
			v-0.1c0-0.3-0.1-0.4-0.2-0.6s-0.3-0.2-0.6-0.2h-0.6c-0.3,0-0.4,0.1-0.6,0.2c-0.1,0.1-0.2,0.3-0.2,0.6V48c0,0.3,0.2,0.5,0.6,0.5
			c0.2,0,0.4,0.1,0.6,0.1c0.2,0,0.4,0.1,0.6,0.1c0.2,0.1,0.4,0.1,0.6,0.2c0.2,0.1,0.3,0.2,0.4,0.5c0.1,0.2,0.2,0.4,0.2,0.7v0.4
			c0,0.4-0.1,0.8-0.4,1s-0.6,0.4-1,0.4h-1c-0.4,0-0.8-0.1-1-0.4C71,51.3,70.9,51,70.9,50.6z"/>
		<path class="st0" d="M78.4,52h-1c-0.4,0-0.8-0.1-1-0.4c-0.2-0.2-0.4-0.6-0.4-1v-3c0-0.4,0.1-0.8,0.4-1c0.2-0.2,0.6-0.4,1-0.4h1
			c0.4,0,0.8,0.1,1,0.4c0.2,0.2,0.4,0.6,0.4,1V48c0,0.1-0.1,0.2-0.2,0.2H79c-0.1,0-0.2-0.1-0.2-0.2v-0.4c0-0.4-0.2-0.7-0.6-0.7h-0.8
			c-0.4,0-0.6,0.2-0.6,0.7v2.9c0,0.4,0.2,0.7,0.6,0.7h0.8c0.4,0,0.6-0.2,0.6-0.7v-0.4c0-0.1,0.1-0.2,0.2-0.2h0.6
			c0.1,0,0.2,0.1,0.2,0.2v0.4c0,0.4-0.1,0.8-0.4,1C79.2,51.8,78.8,52,78.4,52z"/>
	</g>
	<g>
		<path class="st0" d="M120.3,52h-0.6c-0.1,0-0.2-0.1-0.2-0.2v-5.5c0-0.1,0.1-0.2,0.2-0.2h2.8c0.1,0,0.2,0.1,0.2,0.2v0.5
			c0,0.1-0.1,0.2-0.2,0.2h-2c-0.1,0-0.1,0-0.1,0.1v1.7c0,0.1,0,0.1,0.1,0.1h1.7c0.1,0,0.2,0.1,0.2,0.2v0.5c0,0.1-0.1,0.2-0.2,0.2
			h-1.7c-0.1,0-0.1,0-0.1,0.1v2.1C120.5,51.9,120.4,52,120.3,52z"/>
		<path class="st0" d="M123.7,47.6v-0.5c0-0.1,0-0.2,0.1-0.2l0.9-0.6c0.1-0.1,0.2-0.1,0.3-0.1h0.5c0.1,0,0.2,0.1,0.2,0.2v5.5
			c0,0.1,0,0.2-0.1,0.2H125c-0.1,0-0.2-0.1-0.2-0.2v-4.7l-1,0.6C123.8,47.7,123.7,47.7,123.7,47.6z"/>
	</g>
	<g>
		<path class="st0" d="M169.1,52h-0.6c-0.1,0-0.2-0.1-0.2-0.2v-5.5c0-0.1,0.1-0.2,0.2-0.2h2.8c0.1,0,0.2,0.1,0.2,0.2v0.5
			c0,0.1-0.1,0.2-0.2,0.2h-2c-0.1,0-0.1,0-0.1,0.1v1.7c0,0.1,0,0.1,0.1,0.1h1.7c0.1,0,0.2,0.1,0.2,0.2v0.5c0,0.1-0.1,0.2-0.2,0.2
			h-1.7c-0.1,0-0.1,0-0.1,0.1v2.1C169.3,51.9,169.2,52,169.1,52z"/>
		<path class="st0" d="M172.6,51.8V51c0-0.4,0.2-0.7,0.5-0.9l1.7-1.4c0.3-0.2,0.4-0.5,0.4-0.8v-0.3c0-0.4-0.2-0.6-0.7-0.6h-0.4
			c-0.2,0-0.4,0.1-0.5,0.2c-0.1,0.1-0.2,0.3-0.2,0.5v0.3c0,0.1-0.1,0.2-0.2,0.2h-0.6c-0.1,0-0.2-0.1-0.2-0.2v-0.4
			c0-0.4,0.1-0.8,0.4-1c0.2-0.2,0.6-0.4,1-0.4h0.7c0.4,0,0.8,0.1,1,0.4c0.2,0.2,0.4,0.6,0.4,1v0.4c0,0.5-0.2,0.9-0.5,1.2l-1.7,1.4
			c-0.1,0.1-0.2,0.2-0.2,0.4v0.3h2.3c0.1,0,0.2,0.1,0.2,0.2v0.5c0,0.1-0.1,0.2-0.2,0.2h-3.2C172.7,52,172.6,51.9,172.6,51.8z"/>
	</g>
	<g>
		<path class="st0" d="M218.5,52H218c-0.1,0-0.2-0.1-0.2-0.2v-5.5c0-0.1,0.1-0.2,0.2-0.2h2.8c0.1,0,0.2,0.1,0.2,0.2v0.5
			c0,0.1-0.1,0.2-0.2,0.2h-2c-0.1,0-0.1,0-0.1,0.1v1.7c0,0.1,0,0.1,0.1,0.1h1.7c0.1,0,0.2,0.1,0.2,0.2v0.5c0,0.1-0.1,0.2-0.2,0.2
			h-1.7c-0.1,0-0.1,0-0.1,0.1v2.1C218.7,51.9,218.6,52,218.5,52z"/>
		<path class="st0" d="M223.5,48.7h0.5c0.4,0,0.7-0.2,0.7-0.7v-0.5c0-0.4-0.2-0.6-0.7-0.6h-0.5c-0.2,0-0.4,0.1-0.5,0.2
			c-0.1,0.1-0.2,0.3-0.2,0.5v0.3c0,0.1-0.1,0.2-0.2,0.2h-0.6c-0.1,0-0.2-0.1-0.2-0.2v-0.3c0-0.4,0.1-0.8,0.4-1
			c0.2-0.2,0.6-0.4,1-0.4h0.8c0.4,0,0.8,0.1,1,0.4c0.2,0.2,0.4,0.6,0.4,1V48c0,0.5-0.2,0.9-0.7,1c0.5,0.1,0.7,0.5,0.7,1v0.5
			c0,0.4-0.1,0.8-0.4,1c-0.2,0.2-0.6,0.4-1,0.4h-0.8c-0.4,0-0.8-0.1-1-0.4c-0.2-0.2-0.4-0.6-0.4-1v-0.3c0-0.1,0.1-0.2,0.2-0.2h0.6
			c0.1,0,0.2,0.1,0.2,0.2v0.3c0,0.2,0.1,0.4,0.2,0.5s0.3,0.2,0.5,0.2h0.5c0.4,0,0.7-0.2,0.7-0.6v-0.5c0-0.4-0.2-0.7-0.7-0.7h-0.5
			c-0.1,0-0.2-0.1-0.2-0.2v-0.4C223.4,48.7,223.4,48.7,223.5,48.7z"/>
	</g>
	<g>
		<path class="st0" d="M267.9,52h-0.6c-0.1,0-0.2-0.1-0.2-0.2v-5.5c0-0.1,0.1-0.2,0.2-0.2h2.8c0.1,0,0.2,0.1,0.2,0.2v0.5
			c0,0.1-0.1,0.2-0.2,0.2h-2c-0.1,0-0.1,0-0.1,0.1v1.7c0,0.1,0,0.1,0.1,0.1h1.7c0.1,0,0.2,0.1,0.2,0.2v0.5c0,0.1-0.1,0.2-0.2,0.2
			h-1.7c-0.1,0-0.1,0-0.1,0.1v2.1C268.1,51.9,268,52,267.9,52z"/>
		<path class="st0" d="M274.4,52h-0.5c-0.1,0-0.2-0.1-0.2-0.2v-0.9h-2.4c-0.2,0-0.3-0.1-0.3-0.3v-0.3c0-0.1,0-0.2,0.1-0.4l2-3.6
			c0-0.1,0.1-0.1,0.1-0.2c0,0,0.1,0,0.2,0h0.8c0.2,0,0.3,0.1,0.3,0.3v3.7h0.7c0.1,0,0.2,0.1,0.2,0.2v0.5c0,0.1-0.1,0.2-0.2,0.2h-0.7
			v0.9C274.6,51.9,274.5,52,274.4,52z M273.8,50.1v-3.2l-1.8,3.2H273.8z"/>
	</g>
	<g>
		<path class="st0" d="M317.5,52h-0.6c-0.1,0-0.2-0.1-0.2-0.2v-5.5c0-0.1,0.1-0.2,0.2-0.2h2.8c0.1,0,0.2,0.1,0.2,0.2v0.5
			c0,0.1-0.1,0.2-0.2,0.2h-2c-0.1,0-0.1,0-0.1,0.1v1.7c0,0.1,0,0.1,0.1,0.1h1.7c0.1,0,0.2,0.1,0.2,0.2v0.5c0,0.1-0.1,0.2-0.2,0.2
			h-1.7c-0.1,0-0.1,0-0.1,0.1v2.1C317.6,51.9,317.6,52,317.5,52z"/>
		<path class="st0" d="M323,48.9h-0.6c-0.1,0-0.2,0-0.3,0.1c-0.1,0-0.1,0.1-0.1,0.1c-0.1,0.1-0.1,0.2-0.2,0.2h-0.6
			c-0.1,0-0.2-0.1-0.2-0.2v-2.8c0-0.1,0.1-0.2,0.2-0.2h3.1c0.1,0,0.2,0.1,0.2,0.2v0.5c0,0.1-0.1,0.2-0.2,0.2h-2.3v1.6
			c0.1-0.3,0.4-0.4,0.8-0.4h0.5c0.4,0,0.8,0.1,1,0.3s0.3,0.6,0.3,1v1c0,0.4-0.1,0.8-0.4,1c-0.2,0.2-0.6,0.4-1,0.4h-0.8
			c-0.4,0-0.8-0.1-1-0.4c-0.2-0.2-0.4-0.6-0.4-1v-0.2c0-0.1,0.1-0.2,0.2-0.2h0.6c0.1,0,0.2,0.1,0.2,0.2v0.2c0,0.4,0.2,0.7,0.6,0.7
			h0.5c0.4,0,0.7-0.2,0.7-0.7v-0.9c0-0.3-0.1-0.5-0.2-0.6C323.4,49,323.2,48.9,323,48.9z"/>
	</g>
	<g>
		<path class="st0" d="M366.9,52h-0.6c-0.1,0-0.2-0.1-0.2-0.2v-5.5c0-0.1,0.1-0.2,0.2-0.2h2.8c0.1,0,0.2,0.1,0.2,0.2v0.5
			c0,0.1-0.1,0.2-0.2,0.2h-2c-0.1,0-0.1,0-0.1,0.1v1.7c0,0.1,0,0.1,0.1,0.1h1.7c0.1,0,0.2,0.1,0.2,0.2v0.5c0,0.1-0.1,0.2-0.2,0.2
			h-1.7c-0.1,0-0.1,0-0.1,0.1v2.1C367,51.9,367,52,366.9,52z"/>
		<path class="st0" d="M372.6,52h-0.9c-0.4,0-0.8-0.1-1-0.4c-0.2-0.2-0.4-0.6-0.4-1v-3c0-0.4,0.1-0.8,0.4-1c0.2-0.2,0.6-0.4,1-0.4
			h1.8c0.1,0,0.2,0.1,0.2,0.2v0.5c0,0.1-0.1,0.1-0.2,0.1h-1.7c-0.4,0-0.6,0.2-0.6,0.7v0.8h1.4c0.4,0,0.8,0.1,1,0.4
			c0.2,0.2,0.4,0.6,0.4,1v0.8c0,0.4-0.1,0.8-0.4,1C373.4,51.8,373,52,372.6,52z M371.9,51.2h0.6c0.4,0,0.6-0.2,0.6-0.7v-0.7
			c0-0.4-0.2-0.7-0.6-0.7h-1.3v1.4C371.2,51,371.4,51.2,371.9,51.2z"/>
	</g>
	<g>
		<path class="st0" d="M416.7,52h-0.6c-0.1,0-0.2-0.1-0.2-0.2v-5.5c0-0.1,0.1-0.2,0.2-0.2h2.8c0.1,0,0.2,0.1,0.2,0.2v0.5
			c0,0.1-0.1,0.2-0.2,0.2h-2c-0.1,0-0.1,0-0.1,0.1v1.7c0,0.1,0,0.1,0.1,0.1h1.7c0.1,0,0.2,0.1,0.2,0.2v0.5c0,0.1-0.1,0.2-0.2,0.2
			H417c-0.1,0-0.1,0-0.1,0.1v2.1C416.9,51.9,416.8,52,416.7,52z"/>
		<path class="st0" d="M421.2,52h-0.6c-0.1,0-0.1-0.1-0.1-0.2l1.9-4.8h-2.3c-0.1,0-0.2-0.1-0.2-0.2v-0.5c0-0.1,0.1-0.2,0.2-0.2h3.1
			c0.1,0,0.2,0.1,0.2,0.2v0.6c0,0.1,0,0.2-0.1,0.4l-1.8,4.6C421.5,51.9,421.4,52,421.2,52z"/>
	</g>
	<g>
		<path class="st0" d="M465.7,52h-0.6c-0.1,0-0.2-0.1-0.2-0.2v-5.5c0-0.1,0.1-0.2,0.2-0.2h2.8c0.1,0,0.2,0.1,0.2,0.2v0.5
			c0,0.1-0.1,0.2-0.2,0.2h-2c-0.1,0-0.1,0-0.1,0.1v1.7c0,0.1,0,0.1,0.1,0.1h1.7c0.1,0,0.2,0.1,0.2,0.2v0.5c0,0.1-0.1,0.2-0.2,0.2
			H466c-0.1,0-0.1,0-0.1,0.1v2.1C465.9,51.9,465.8,52,465.7,52z"/>
		<path class="st0" d="M471.6,52h-1c-0.4,0-0.8-0.1-1-0.3s-0.4-0.6-0.4-1v-0.5c0-0.6,0.2-0.9,0.6-1.1c-0.4-0.2-0.6-0.5-0.6-1.1v-0.5
			c0-0.4,0.1-0.8,0.4-1s0.6-0.3,1-0.3h1c0.4,0,0.8,0.1,1,0.3c0.2,0.2,0.4,0.6,0.4,1V48c0,0.3-0.1,0.5-0.2,0.7s-0.3,0.3-0.4,0.4
			c0.4,0.2,0.6,0.5,0.6,1.1v0.5c0,0.4-0.1,0.8-0.4,1C472.4,51.8,472,52,471.6,52z M470.7,48.7h0.7c0.4,0,0.6-0.2,0.6-0.7v-0.4
			c0-0.2-0.1-0.4-0.2-0.5c-0.1-0.1-0.3-0.2-0.5-0.2h-0.7c-0.2,0-0.4,0.1-0.5,0.2c-0.1,0.1-0.2,0.3-0.2,0.5V48
			C470.1,48.5,470.3,48.7,470.7,48.7z M470.7,51.2h0.7c0.2,0,0.4-0.1,0.5-0.2c0.1-0.1,0.2-0.3,0.2-0.5v-0.5c0-0.4-0.2-0.7-0.6-0.7
			h-0.7c-0.4,0-0.6,0.2-0.6,0.7v0.5c0,0.2,0.1,0.4,0.2,0.5C470.4,51.1,470.5,51.2,470.7,51.2z"/>
	</g>
	<g>
		<path class="st0" d="M515.3,52h-0.6c-0.1,0-0.2-0.1-0.2-0.2v-5.5c0-0.1,0.1-0.2,0.2-0.2h2.8c0.1,0,0.2,0.1,0.2,0.2v0.5
			c0,0.1-0.1,0.2-0.2,0.2h-2c-0.1,0-0.1,0-0.1,0.1v1.7c0,0.1,0,0.1,0.1,0.1h1.7c0.1,0,0.2,0.1,0.2,0.2v0.5c0,0.1-0.1,0.2-0.2,0.2
			h-1.7c-0.1,0-0.1,0-0.1,0.1v2.1C515.4,51.9,515.4,52,515.3,52z"/>
		<path class="st0" d="M521,52h-1.8c-0.1,0-0.2-0.1-0.2-0.2v-0.5c0-0.1,0.1-0.1,0.2-0.1h1.7c0.4,0,0.6-0.2,0.6-0.7v-0.7h-1.4
			c-0.4,0-0.8-0.1-1-0.4c-0.2-0.2-0.4-0.6-0.4-1v-0.8c0-0.4,0.1-0.8,0.4-1c0.2-0.2,0.6-0.4,1-0.4h0.9c0.4,0,0.8,0.1,1,0.4
			c0.2,0.2,0.4,0.6,0.4,1v3c0,0.4-0.1,0.8-0.4,1C521.7,51.8,521.4,52,521,52z M520.2,49h1.3v-1.4c0-0.4-0.2-0.7-0.7-0.7h-0.6
			c-0.4,0-0.6,0.2-0.6,0.7v0.8C519.6,48.8,519.8,49,520.2,49z"/>
	</g>
	<g>
		<path class="st0" d="M563.1,52h-0.6c-0.1,0-0.2-0.1-0.2-0.2v-5.5c0-0.1,0.1-0.2,0.2-0.2h2.8c0.1,0,0.2,0.1,0.2,0.2v0.5
			c0,0.1-0.1,0.2-0.2,0.2h-2c-0.1,0-0.1,0-0.1,0.1v1.7c0,0.1,0,0.1,0.1,0.1h1.7c0.1,0,0.2,0.1,0.2,0.2v0.5c0,0.1-0.1,0.2-0.2,0.2
			h-1.7c-0.1,0-0.1,0-0.1,0.1v2.1C563.2,51.9,563.2,52,563.1,52z"/>
		<path class="st0" d="M566.4,47.6v-0.5c0-0.1,0-0.2,0.1-0.2l0.9-0.6c0.1-0.1,0.2-0.1,0.3-0.1h0.5c0.1,0,0.2,0.1,0.2,0.2v5.5
			c0,0.1,0,0.2-0.1,0.2h-0.6c-0.1,0-0.2-0.1-0.2-0.2v-4.7l-1,0.6C566.5,47.7,566.4,47.7,566.4,47.6z"/>
		<path class="st0" d="M572.1,52h-0.9c-0.4,0-0.8-0.1-1-0.4c-0.2-0.2-0.4-0.6-0.4-1v-3c0-0.4,0.1-0.8,0.4-1c0.2-0.2,0.6-0.4,1-0.4
			h0.9c0.4,0,0.8,0.1,1,0.4c0.2,0.2,0.4,0.6,0.4,1v3c0,0.4-0.1,0.8-0.4,1C572.9,51.8,572.5,52,572.1,52z M571.3,51.2h0.6
			c0.4,0,0.6-0.2,0.6-0.7v-2.9c0-0.4-0.2-0.7-0.6-0.7h-0.6c-0.4,0-0.6,0.2-0.6,0.7v2.9C570.7,51,570.9,51.2,571.3,51.2z"/>
	</g>
	<g>
		<path class="st0" d="M613.4,52h-0.6c-0.1,0-0.2-0.1-0.2-0.2v-5.5c0-0.1,0.1-0.2,0.2-0.2h2.8c0.1,0,0.2,0.1,0.2,0.2v0.5
			c0,0.1-0.1,0.2-0.2,0.2h-2c-0.1,0-0.1,0-0.1,0.1v1.7c0,0.1,0,0.1,0.1,0.1h1.7c0.1,0,0.2,0.1,0.2,0.2v0.5c0,0.1-0.1,0.2-0.2,0.2
			h-1.7c-0.1,0-0.1,0-0.1,0.1v2.1C613.5,51.9,613.5,52,613.4,52z"/>
		<path class="st0" d="M616.8,47.6v-0.5c0-0.1,0-0.2,0.1-0.2l0.9-0.6c0.1-0.1,0.2-0.1,0.3-0.1h0.5c0.1,0,0.2,0.1,0.2,0.2v5.5
			c0,0.1,0,0.2-0.1,0.2h-0.6c-0.1,0-0.2-0.1-0.2-0.2v-4.7l-1,0.6C616.8,47.7,616.8,47.7,616.8,47.6z"/>
		<path class="st0" d="M619.9,47.6v-0.5c0-0.1,0-0.2,0.1-0.2l0.9-0.6c0.1-0.1,0.2-0.1,0.3-0.1h0.5c0.1,0,0.2,0.1,0.2,0.2v5.5
			c0,0.1,0,0.2-0.1,0.2h-0.6c-0.1,0-0.2-0.1-0.2-0.2v-4.7l-1,0.6C620,47.7,619.9,47.7,619.9,47.6z"/>
	</g>
	<g>
		<path class="st0" d="M662.2,52h-0.6c-0.1,0-0.2-0.1-0.2-0.2v-5.5c0-0.1,0.1-0.2,0.2-0.2h2.8c0.1,0,0.2,0.1,0.2,0.2v0.5
			c0,0.1-0.1,0.2-0.2,0.2h-2c-0.1,0-0.1,0-0.1,0.1v1.7c0,0.1,0,0.1,0.1,0.1h1.7c0.1,0,0.2,0.1,0.2,0.2v0.5c0,0.1-0.1,0.2-0.2,0.2
			h-1.7c-0.1,0-0.1,0-0.1,0.1v2.1C662.3,51.9,662.3,52,662.2,52z"/>
		<path class="st0" d="M665.5,47.6v-0.5c0-0.1,0-0.2,0.1-0.2l0.9-0.6c0.1-0.1,0.2-0.1,0.3-0.1h0.5c0.1,0,0.2,0.1,0.2,0.2v5.5
			c0,0.1,0,0.2-0.1,0.2h-0.6c-0.1,0-0.2-0.1-0.2-0.2v-4.7l-1,0.6C665.6,47.7,665.5,47.7,665.5,47.6z"/>
		<path class="st0" d="M668.9,51.8V51c0-0.4,0.2-0.7,0.5-0.9l1.7-1.4c0.3-0.2,0.4-0.5,0.4-0.8v-0.3c0-0.4-0.2-0.6-0.7-0.6h-0.4
			c-0.2,0-0.4,0.1-0.5,0.2c-0.1,0.1-0.2,0.3-0.2,0.5v0.3c0,0.1-0.1,0.2-0.2,0.2H669c-0.1,0-0.2-0.1-0.2-0.2v-0.4
			c0-0.4,0.1-0.8,0.4-1c0.2-0.2,0.6-0.4,1-0.4h0.7c0.4,0,0.8,0.1,1,0.4c0.2,0.2,0.4,0.6,0.4,1v0.4c0,0.5-0.2,0.9-0.5,1.2l-1.7,1.4
			c-0.1,0.1-0.2,0.2-0.2,0.4v0.3h2.3c0.1,0,0.2,0.1,0.2,0.2v0.5c0,0.1-0.1,0.2-0.2,0.2H669C668.9,52,668.9,51.9,668.9,51.8z"/>
	</g>
	<g>
		<path class="st0" d="M704.8,52h-0.6c-0.1,0-0.2-0.1-0.2-0.2v-5.5c0-0.1,0.1-0.2,0.2-0.2h2.2c0.4,0,0.8,0.1,1,0.4
			c0.2,0.2,0.4,0.6,0.4,1v0.9c0,0.4-0.1,0.8-0.4,1c-0.2,0.2-0.6,0.4-1,0.4h-1.3c-0.1,0-0.1,0-0.1,0.1v1.8
			C705,51.9,704.9,52,704.8,52z M705.1,49.1h1.2c0.4,0,0.6-0.2,0.6-0.7v-0.9c0-0.4-0.2-0.7-0.6-0.7h-1.2c-0.1,0-0.1,0-0.1,0.1
			L705.1,49.1C705,49.1,705,49.1,705.1,49.1z"/>
		<path class="st0" d="M709.6,52H709c-0.1,0-0.2-0.1-0.2-0.2v-5.5c0-0.1,0.1-0.2,0.2-0.2h2.1c0.4,0,0.8,0.1,1,0.4s0.4,0.6,0.4,1v0.8
			c0,0.7-0.3,1.1-0.9,1.3v0l1,2.1c0.1,0.1,0,0.2-0.1,0.2H712c-0.1,0-0.2-0.1-0.3-0.2l-1-2.1h-0.9c-0.1,0-0.1,0-0.1,0.1v2
			C709.8,51.9,709.7,52,709.6,52z M709.9,49h1.1c0.4,0,0.7-0.2,0.7-0.7v-0.8c0-0.4-0.2-0.7-0.7-0.7h-1.1c-0.1,0-0.1,0-0.1,0.1
			L709.9,49C709.8,49,709.8,49,709.9,49z"/>
		<path class="st0" d="M715.4,52h-0.6c-0.1,0-0.2-0.1-0.2-0.2v-4.8c0-0.1,0-0.1-0.1-0.1h-1.1c-0.1,0-0.2-0.1-0.2-0.2v-0.5
			c0-0.1,0.1-0.2,0.2-0.2h3.4c0.1,0,0.2,0.1,0.2,0.2v0.5c0,0.1-0.1,0.2-0.2,0.2h-1.1c-0.1,0-0.1,0-0.1,0.1v4.8
			C715.5,51.9,715.5,52,715.4,52z"/>
		<path class="st0" d="M719.8,50.6v-0.2c0-0.1,0.1-0.2,0.2-0.2h0.6c0.1,0,0.2,0.1,0.2,0.2v0.2c0,0.3,0.1,0.4,0.2,0.5
			c0.1,0.1,0.3,0.2,0.6,0.2h0.6c0.3,0,0.4-0.1,0.6-0.2c0.1-0.1,0.2-0.3,0.2-0.6v-0.2c0-0.2-0.1-0.3-0.2-0.5
			c-0.1-0.1-0.3-0.2-0.5-0.2c-0.2,0-0.5-0.1-0.7-0.1c-0.3-0.1-0.5-0.1-0.7-0.2s-0.4-0.2-0.5-0.4c-0.1-0.2-0.2-0.5-0.2-0.8v-0.4
			c0-0.4,0.1-0.8,0.4-1s0.6-0.4,1-0.4h1c0.4,0,0.8,0.1,1,0.4s0.4,0.6,0.4,1v0.2c0,0.1-0.1,0.2-0.2,0.2h-0.6c-0.1,0-0.2-0.1-0.2-0.2
			v-0.1c0-0.3-0.1-0.4-0.2-0.6s-0.3-0.2-0.6-0.2h-0.6c-0.3,0-0.4,0.1-0.6,0.2c-0.1,0.1-0.2,0.3-0.2,0.6V48c0,0.3,0.2,0.5,0.6,0.5
			c0.2,0,0.4,0.1,0.6,0.1c0.2,0,0.4,0.1,0.6,0.1c0.2,0.1,0.4,0.1,0.6,0.2s0.3,0.2,0.4,0.5c0.1,0.2,0.2,0.4,0.2,0.7v0.4
			c0,0.4-0.1,0.8-0.4,1s-0.6,0.4-1,0.4h-1c-0.4,0-0.8-0.1-1-0.4S719.8,51,719.8,50.6z"/>
		<path class="st0" d="M727.2,52h-1c-0.4,0-0.8-0.1-1-0.4c-0.2-0.2-0.4-0.6-0.4-1v-3c0-0.4,0.1-0.8,0.4-1c0.2-0.2,0.6-0.4,1-0.4h1
			c0.4,0,0.8,0.1,1,0.4c0.2,0.2,0.4,0.6,0.4,1V48c0,0.1-0.1,0.2-0.2,0.2h-0.6c-0.1,0-0.2-0.1-0.2-0.2v-0.4c0-0.4-0.2-0.7-0.7-0.7
			h-0.8c-0.4,0-0.7,0.2-0.7,0.7v2.9c0,0.4,0.2,0.7,0.7,0.7h0.8c0.4,0,0.7-0.2,0.7-0.7v-0.4c0-0.1,0.1-0.2,0.2-0.2h0.6
			c0.1,0,0.2,0.1,0.2,0.2v0.4c0,0.4-0.1,0.8-0.4,1C728,51.9,727.6,52,727.2,52z"/>
	</g>
	<g>
		<path class="st0" d="M759.7,51.8v-5.5c0-0.1,0.1-0.2,0.2-0.2h2.2c0.4,0,0.8,0.1,1,0.4c0.2,0.2,0.4,0.6,0.4,1v3
			c0,0.4-0.1,0.8-0.4,1c-0.2,0.2-0.6,0.4-1,0.4h-2.2C759.7,52,759.7,51.9,759.7,51.8z M760.6,51.2h1.3c0.4,0,0.7-0.2,0.7-0.7v-2.9
			c0-0.4-0.2-0.7-0.7-0.7h-1.3c-0.1,0-0.1,0-0.1,0.1L760.6,51.2C760.5,51.2,760.6,51.2,760.6,51.2z"/>
		<path class="st0" d="M767.7,52h-2.9c-0.1,0-0.2-0.1-0.2-0.2v-5.5c0-0.1,0.1-0.2,0.2-0.2h2.9c0.1,0,0.1,0.1,0.1,0.2v0.5
			c0,0.1,0,0.2-0.1,0.2h-2.1c-0.1,0-0.1,0-0.1,0.1v1.5c0,0.1,0,0.1,0.1,0.1h1.7c0.1,0,0.2,0.1,0.2,0.2v0.5c0,0.1-0.1,0.2-0.2,0.2
			h-1.7c-0.1,0-0.1,0-0.1,0.1v1.6c0,0.1,0,0.1,0.1,0.1h2.1c0.1,0,0.1,0.1,0.1,0.2v0.5C767.9,51.9,767.8,52,767.7,52z"/>
		<path class="st0" d="M772.1,52h-2.9c-0.1,0-0.2-0.1-0.2-0.2v-5.5c0-0.1,0.1-0.2,0.2-0.2h0.6c0.1,0,0.2,0.1,0.2,0.2v4.8
			c0,0.1,0,0.1,0.1,0.1h2.1c0.1,0,0.2,0.1,0.2,0.2v0.5C772.3,51.9,772.2,52,772.1,52z"/>
	</g>
	<g>
		<path class="st0" d="M705.1,60v-0.3c0-0.1,0-0.1,0.1-0.1h0.4c0.1,0,0.1,0,0.1,0.1V60c0,0.5,0.3,0.8,0.8,0.8h0.8
			c0.5,0,0.8-0.3,0.8-0.8v-0.3c0-0.4-0.4-0.7-1.1-0.8c-0.3-0.1-0.6-0.1-0.9-0.2c-0.3-0.1-0.6-0.2-0.8-0.4s-0.3-0.5-0.3-0.9v-0.4
			c0-0.4,0.1-0.7,0.4-1c0.2-0.2,0.6-0.4,1-0.4h1c0.4,0,0.7,0.1,1,0.4c0.2,0.2,0.4,0.6,0.4,1v0.2c0,0.1,0,0.1-0.1,0.1h-0.4
			c-0.1,0-0.1,0-0.1-0.1V57c0-0.5-0.3-0.8-0.8-0.8h-0.8c-0.5,0-0.8,0.3-0.8,0.9v0.4c0,0.3,0.2,0.5,0.6,0.6c0.2,0,0.4,0.1,0.6,0.1
			s0.4,0.1,0.7,0.2s0.4,0.1,0.6,0.2c0.2,0.1,0.3,0.2,0.4,0.4c0.1,0.2,0.2,0.4,0.2,0.7V60c0,0.4-0.1,0.7-0.4,1
			c-0.2,0.2-0.6,0.4-1,0.4h-1c-0.4,0-0.7-0.1-1-0.4C705.2,60.8,705.1,60.4,705.1,60z"/>
		<path class="st0" d="M712.5,61.4h-1.1c-0.4,0-0.7-0.1-1-0.4s-0.4-0.6-0.4-1v-3.1c0-0.4,0.1-0.7,0.4-1s0.6-0.4,1-0.4h1.1
			c0.4,0,0.7,0.1,1,0.4c0.2,0.2,0.4,0.6,0.4,1v0.4c0,0.1,0,0.1-0.1,0.1h-0.4c-0.1,0-0.1,0-0.1-0.1v-0.4c0-0.5-0.3-0.8-0.8-0.8h-0.9
			c-0.5,0-0.7,0.3-0.7,0.8V60c0,0.5,0.2,0.8,0.7,0.8h0.9c0.5,0,0.8-0.3,0.8-0.8v-0.4c0-0.1,0-0.1,0.1-0.1h0.4c0.1,0,0.1,0,0.1,0.1
			V60c0,0.4-0.1,0.7-0.4,1C713.2,61.2,712.9,61.4,712.5,61.4z"/>
		<path class="st0" d="M715.6,61.4h-0.4c-0.1,0-0.1,0-0.1-0.1v-5.5c0-0.1,0-0.1,0.1-0.1h2.1c0.4,0,0.7,0.1,1,0.4
			c0.2,0.2,0.4,0.6,0.4,1v0.8c0,0.3-0.1,0.6-0.2,0.8c-0.2,0.2-0.4,0.4-0.7,0.4v0l1,2.2c0.1,0.1,0,0.1-0.1,0.1h-0.4
			c-0.1,0-0.2,0-0.2-0.1l-1-2.2h-1.2c-0.1,0-0.1,0-0.1,0.1v2.1C715.7,61.3,715.6,61.4,715.6,61.4z M715.8,58.5h1.4
			c0.5,0,0.8-0.3,0.8-0.8v-0.8c0-0.5-0.3-0.8-0.8-0.8h-1.4c-0.1,0-0.1,0-0.1,0.1L715.8,58.5C715.7,58.5,715.7,58.5,715.8,58.5z"/>
		<path class="st0" d="M722.9,61.4H720c-0.1,0-0.1,0-0.1-0.1v-5.5c0-0.1,0-0.1,0.1-0.1h0.4c0.1,0,0.1,0,0.1,0.1v5
			c0,0.1,0,0.1,0.1,0.1h2.3c0.1,0,0.1,0,0.1,0.1v0.3C723,61.3,723,61.4,722.9,61.4z"/>
		<path class="st0" d="M724.5,61.4H724c-0.1,0-0.1,0-0.1-0.1v-5.5c0-0.1,0-0.1,0.1-0.1h0.4c0.1,0,0.1,0,0.1,0.1v3.1h0
			c0-0.1,0.1-0.2,0.2-0.4l2-2.7c0.1-0.1,0.1-0.1,0.2-0.1h0.5c0.1,0,0.1,0,0,0.1l-1.8,2.4l2,3.1c0.1,0.1,0,0.1-0.1,0.1h-0.4
			c-0.1,0-0.2,0-0.3-0.1l-1.7-2.6l-0.8,1v1.7C724.6,61.3,724.5,61.4,724.5,61.4z"/>
	</g>
	<g>
		<path class="st0" d="M59.1,61.4h-0.4c-0.1,0-0.1,0-0.1-0.1v-5.5c0-0.1,0-0.1,0.1-0.1h2.8c0.1,0,0.1,0,0.1,0.1V56
			c0,0.1,0,0.1-0.1,0.1h-2.2c-0.1,0-0.1,0-0.1,0.1v2c0,0.1,0,0.1,0.1,0.1h1.9c0.1,0,0.1,0,0.1,0.1v0.3c0,0.1,0,0.1-0.1,0.1h-1.9
			c-0.1,0-0.1,0-0.1,0.1v2.3C59.2,61.3,59.2,61.4,59.1,61.4z"/>
		<path class="st0" d="M63.2,61.4h-0.4c-0.1,0-0.1,0-0.1-0.1v-5.5c0-0.1,0-0.1,0.1-0.1h0.4c0.1,0,0.1,0,0.1,0.1l2.5,4.4h0v-4.3
			c0-0.1,0-0.1,0.1-0.1h0.4c0.1,0,0.1,0,0.1,0.1v5.5c0,0.1,0,0.1-0.1,0.1H66c-0.1,0-0.1,0-0.2-0.1l-2.5-4.3h0v4.3
			C63.3,61.3,63.3,61.4,63.2,61.4z"/>
		<path class="st0" d="M73.2,61.4h-2.9c-0.1,0-0.1,0-0.1-0.1v-5.5c0-0.1,0-0.1,0.1-0.1h0.4c0.1,0,0.1,0,0.1,0.1v5
			c0,0.1,0,0.1,0.1,0.1h2.3c0.1,0,0.1,0,0.1,0.1v0.3C73.3,61.3,73.3,61.4,73.2,61.4z"/>
		<path class="st0" d="M76.6,61.4h-1.1c-0.4,0-0.7-0.1-1-0.4s-0.4-0.6-0.4-1v-3.1c0-0.4,0.1-0.7,0.4-1s0.6-0.4,1-0.4h1.1
			c0.4,0,0.7,0.1,1,0.4c0.2,0.2,0.4,0.6,0.4,1V60c0,0.4-0.1,0.7-0.4,1C77.3,61.2,77,61.4,76.6,61.4z M75.6,60.8h0.9
			c0.5,0,0.8-0.3,0.8-0.8v-3.1c0-0.5-0.3-0.8-0.8-0.8h-0.9c-0.5,0-0.7,0.3-0.7,0.8V60C74.8,60.5,75.1,60.8,75.6,60.8z"/>
		<path class="st0" d="M81.6,61.4h-1.1c-0.4,0-0.7-0.1-1-0.4s-0.4-0.6-0.4-1v-3.1c0-0.4,0.1-0.7,0.4-1s0.6-0.4,1-0.4h1.1
			c0.4,0,0.7,0.1,1,0.4c0.2,0.2,0.4,0.6,0.4,1v0.4c0,0.1,0,0.1-0.1,0.1h-0.4c-0.1,0-0.1,0-0.1-0.1v-0.4c0-0.5-0.3-0.8-0.8-0.8h-0.9
			c-0.5,0-0.7,0.3-0.7,0.8V60c0,0.5,0.2,0.8,0.7,0.8h0.9c0.5,0,0.8-0.3,0.8-0.8v-0.4c0-0.1,0-0.1,0.1-0.1h0.4c0.1,0,0.1,0,0.1,0.1
			V60c0,0.4-0.1,0.7-0.4,1C82.3,61.2,82,61.4,81.6,61.4z"/>
		<path class="st0" d="M84.6,61.4h-0.4c-0.1,0-0.1,0-0.1-0.1v-5.5c0-0.1,0-0.1,0.1-0.1h0.4c0.1,0,0.1,0,0.1,0.1v3.1h0
			c0-0.1,0.1-0.2,0.2-0.4l2-2.7c0.1-0.1,0.1-0.1,0.2-0.1h0.5c0.1,0,0.1,0,0,0.1L86,58.1l2,3.1c0.1,0.1,0,0.1-0.1,0.1h-0.4
			c-0.1,0-0.2,0-0.3-0.1l-1.7-2.6l-0.8,1v1.7C84.8,61.3,84.7,61.4,84.6,61.4z"/>
	</g>
</g>
<g id="Commands">
	<path id="context_1_" class="st0" d="M639.3,323.7h-5.5c-0.2,0-0.3-0.1-0.3-0.3s0.1-0.3,0.3-0.3h5.5c0.2,0,0.3,0.1,0.3,0.3
		S639.5,323.7,639.3,323.7z M639.6,321c0-0.2-0.1-0.3-0.3-0.3h-5.5c-0.2,0-0.3,0.1-0.3,0.3s0.1,0.3,0.3,0.3h5.5
		C639.5,321.3,639.6,321.1,639.6,321z M639.6,318.5c0-0.2-0.1-0.3-0.3-0.3h-5.5c-0.2,0-0.3,0.1-0.3,0.3s0.1,0.3,0.3,0.3h5.5
		C639.4,318.8,639.6,318.7,639.6,318.5z"/>
	<g>
		<path class="st1" d="M137.4,81.6l3-1.7c0.1,0,0.2,0,0.2,0.1v3.4c0,0.1-0.1,0.1-0.2,0.1l-3-1.7C137.3,81.7,137.3,81.6,137.4,81.6z"
			/>
		<rect x="135.8" y="79.6" class="st1" width="0.8" height="4.3"/>
	</g>
	<g>
		<path class="st1" d="M192.9,81.8l-3,1.7c-0.1,0-0.2,0-0.2-0.1V80c0-0.1,0.1-0.1,0.2-0.1l3,1.7C193,81.6,193,81.7,192.9,81.8z"/>
		<rect x="193.7" y="79.6" class="st1" width="0.8" height="4.3"/>
	</g>
	<path class="st0" d="M816,87.5c0-0.3-0.2-0.5-0.5-0.5H810v-1.5c0-0.2-0.1-0.4-0.3-0.5c-0.2-0.1-0.4,0-0.5,0.1l-3.2,3.2
		c-0.2,0.2-0.2,0.5,0,0.7l3.2,3.2c0.1,0.1,0.2,0.1,0.4,0.1c0.1,0,0.1,0,0.2,0c0.2-0.1,0.3-0.3,0.3-0.5v-1.5h5.5
		c0.3,0,0.5-0.2,0.5-0.5h0V87.5L816,87.5C816,87.5,816,87.5,816,87.5z M809,89.5v1.3l-2-2l2-2V88h6v1.5H809z"/>
	<path class="st0" d="M816.4,198.4L816.4,198.4l-2.6,0v0c0,0,0,0,0,0c-0.3,0-0.5,0.2-0.5,0.5v1.9h-4.1v-1.5c0-0.2-0.1-0.4-0.3-0.5
		c-0.2-0.1-0.4,0-0.5,0.1l-3.2,3.2c-0.2,0.2-0.2,0.5,0,0.7l3.2,3.2c0.1,0.1,0.2,0.1,0.4,0.1c0.1,0,0.1,0,0.2,0
		c0.2-0.1,0.3-0.3,0.3-0.5v-1.5h7.7v-5.4C816.9,198.6,816.7,198.4,816.4,198.4z M808.2,203.3v1.3l-2-2l2-2v1.3h6.1v-2.4h1.5v3.9
		H808.2z"/>
	<path class="st0" d="M81,254.5l-3.2-3.2c-0.2-0.2-0.5-0.2-0.7,0l-3.2,3.2c-0.1,0.1-0.1,0.2-0.1,0.4c0,0.1,0,0.1,0,0.2
		c0.1,0.2,0.3,0.3,0.5,0.3h1.5v3.2c0,0.3,0.2,0.5,0.5,0.5c0,0,0,0,0,0v0h2.6v0c0.3,0,0.5-0.2,0.5-0.5v-3.2h1.5
		c0.2,0,0.4-0.1,0.5-0.3C81.2,254.9,81.2,254.6,81,254.5z M78.2,254.3v3.7h-1.5v-3.7h-1.3l2-2l2,2H78.2z"/>
	<path class="st0" d="M81.1,202.4c-0.1-0.2-0.3-0.3-0.5-0.3h-1.5v-3.2c0-0.3-0.2-0.5-0.5-0.5v0h-2.6v0c0,0,0,0,0,0
		c-0.3,0-0.5,0.2-0.5,0.5v3.2h-1.5c-0.2,0-0.4,0.1-0.5,0.3c-0.1,0.2,0,0.4,0.1,0.5l3.2,3.2c0.2,0.2,0.5,0.2,0.7,0l3.2-3.2
		c0.1-0.1,0.1-0.2,0.1-0.4C81.2,202.5,81.2,202.5,81.1,202.4z M77.5,205.1l-2-2h1.3v-3.7h1.5v3.7h1.3L77.5,205.1z"/>
	<g>
		<g>
			<path class="st0" d="M74.7,150.7V146c0-0.3-0.2-0.5-0.5-0.5s-0.5,0.2-0.5,0.5v4.7c0,0.3,0.2,0.5,0.5,0.5S74.7,151,74.7,150.7z"/>
			<path class="st0" d="M91.3,153.2v-4.7c0-0.3-0.2-0.5-0.5-0.5s-0.5,0.2-0.5,0.5v4.7c0,0.3,0.2,0.5,0.5,0.5S91.3,153.5,91.3,153.2z
				"/>
		</g>
		<path class="st0" d="M89.3,150.5l-3.2-3.2c-0.1-0.1-0.2-0.1-0.4-0.1c-0.1,0-0.1,0-0.2,0c-0.2,0.1-0.3,0.3-0.3,0.5v1.5H84
			c-0.2,0-0.3,0.1-0.4,0.2l0,0l-1.9,2.5c-0.1,0.1-0.1,0.2-0.1,0.4c0,0.3,0.2,0.5,0.5,0.5h3.2v1.5c0,0.2,0.1,0.4,0.3,0.5
			c0.2,0.1,0.4,0,0.5-0.1l3.2-3.2C89.5,151.1,89.5,150.7,89.3,150.5z M86.2,152.9v-1.3h-3.2l1.2-1.5h1.9v-1.3l2,2L86.2,152.9z"/>
		<path class="st0" d="M83.4,147.4c0.1-0.1,0.1-0.2,0.1-0.3c0-0.3-0.2-0.5-0.5-0.5h-3.2v-1.5c0-0.2-0.1-0.4-0.3-0.5
			c-0.2-0.1-0.4,0-0.5,0.1l-3.2,3.2c-0.2,0.2-0.2,0.5,0,0.7l3.2,3.2c0.1,0.1,0.2,0.1,0.4,0.1c0.1,0,0.1,0,0.2,0
			c0.2-0.1,0.3-0.3,0.3-0.5v-1.5H81c0.2,0,0.3-0.1,0.4-0.2l0,0L83.4,147.4C83.4,147.4,83.4,147.4,83.4,147.4L83.4,147.4L83.4,147.4z
			 M78.8,149.1v1.3l-2-2l2-2v1.3H82l-1.2,1.5H78.8z"/>
	</g>
	<path class="st1" d="M83.2,81.8l-3,1.7c-0.1,0-0.2,0-0.2-0.1V80c0-0.1,0.1-0.1,0.2-0.1l3,1.7C83.2,81.6,83.2,81.7,83.2,81.8z
		 M84.1,83.9h0.8v-4.3h-0.8V83.9z M85.7,83.9h0.8v-4.3h-0.8V83.9z"/>
	<g>
		<path class="st0" d="M71.1,305.9h-1c-0.4,0-0.8-0.1-1-0.4c-0.2-0.2-0.4-0.6-0.4-1v-3c0-0.4,0.1-0.8,0.4-1c0.2-0.2,0.6-0.4,1-0.4h1
			c0.4,0,0.8,0.1,1,0.4c0.2,0.2,0.4,0.6,0.4,1v0.4c0,0.1-0.1,0.2-0.2,0.2h-0.6c-0.1,0-0.2-0.1-0.2-0.2v-0.4c0-0.4-0.2-0.7-0.6-0.7
			h-0.8c-0.4,0-0.6,0.2-0.6,0.7v2.9c0,0.4,0.2,0.7,0.6,0.7h0.8c0.4,0,0.6-0.2,0.6-0.7V304c0-0.1,0.1-0.2,0.2-0.2h0.6
			c0.1,0,0.2,0.1,0.2,0.2v0.4c0,0.4-0.1,0.8-0.4,1C71.9,305.7,71.5,305.9,71.1,305.9z"/>
		<path class="st0" d="M75.5,305.9h-0.6c-0.1,0-0.2-0.1-0.2-0.2v-4.8c0-0.1,0-0.1-0.1-0.1h-1.1c-0.1,0-0.2-0.1-0.2-0.2v-0.5
			c0-0.1,0.1-0.2,0.2-0.2h3.3c0.1,0,0.2,0.1,0.2,0.2v0.5c0,0.1-0.1,0.2-0.2,0.2h-1.1c-0.1,0-0.1,0-0.1,0.1v4.8
			C75.7,305.8,75.6,305.9,75.5,305.9z"/>
		<path class="st0" d="M78.9,305.9h-0.6c-0.1,0-0.2-0.1-0.2-0.2v-5.5c0-0.1,0.1-0.2,0.2-0.2h2.1c0.4,0,0.8,0.1,1,0.4s0.4,0.6,0.4,1
			v0.8c0,0.7-0.3,1.1-0.9,1.3v0l1,2.1c0.1,0.1,0,0.2-0.1,0.2h-0.6c-0.1,0-0.2-0.1-0.3-0.2l-1-2.1h-0.9c-0.1,0-0.1,0-0.1,0.1v2
			C79,305.8,79,305.9,78.9,305.9z M79.1,302.9h1.1c0.4,0,0.7-0.2,0.7-0.7v-0.8c0-0.4-0.2-0.7-0.7-0.7h-1.1c-0.1,0-0.1,0-0.1,0.1
			L79.1,302.9C79,302.9,79,302.9,79.1,302.9z"/>
		<path class="st0" d="M86.3,305.9h-2.9c-0.1,0-0.2-0.1-0.2-0.2v-5.5c0-0.1,0.1-0.2,0.2-0.2h0.6c0.1,0,0.2,0.1,0.2,0.2v4.8
			c0,0.1,0,0.1,0.1,0.1h2.1c0.1,0,0.2,0.1,0.2,0.2v0.5C86.4,305.8,86.4,305.9,86.3,305.9z"/>
	</g>
	<g>
		<path class="st0" d="M132,305.9h-0.6c-0.1,0-0.2-0.1-0.2-0.2v-5.5c0-0.1,0.1-0.2,0.2-0.2h2.8c0.1,0,0.2,0.1,0.2,0.2v0.5
			c0,0.1-0.1,0.2-0.2,0.2h-2c-0.1,0-0.1,0-0.1,0.1v1.7c0,0.1,0,0.1,0.1,0.1h1.7c0.1,0,0.2,0.1,0.2,0.2v0.4c0,0.1-0.1,0.2-0.2,0.2
			h-1.7c-0.1,0-0.1,0-0.1,0.1v2.1C132.1,305.8,132.1,305.9,132,305.9z"/>
		<path class="st0" d="M136.2,305.9h-0.6c-0.1,0-0.2-0.1-0.2-0.2v-5.5c0-0.1,0.1-0.2,0.2-0.2h0.5c0.1,0,0.2,0,0.2,0.1l2.2,3.9h0
			v-3.9c0-0.1,0.1-0.2,0.2-0.2h0.6c0.1,0,0.2,0.1,0.2,0.2v5.5c0,0.1-0.1,0.2-0.2,0.2h-0.5c-0.1,0-0.2,0-0.2-0.1l-2.2-3.9h0v3.9
			C136.4,305.8,136.3,305.9,136.2,305.9z"/>
	</g>
	<g>
		<path class="st0" d="M245.9,305.9h-0.6c-0.1,0-0.1-0.1-0.1-0.2l1.6-5.5c0-0.1,0.1-0.2,0.2-0.2h0.9c0.1,0,0.2,0.1,0.2,0.2l1.6,5.5
			c0,0.1,0,0.2-0.1,0.2h-0.6c-0.1,0-0.1,0-0.1,0c0,0,0-0.1,0-0.1l-0.3-1.2h-2l-0.3,1.2C246,305.8,246,305.9,245.9,305.9z
			 M247.3,300.9l-0.8,2.9h1.6L247.3,300.9L247.3,300.9z"/>
		<path class="st0" d="M253.8,305.9h-2.9c-0.1,0-0.2-0.1-0.2-0.2v-5.5c0-0.1,0.1-0.2,0.2-0.2h0.6c0.1,0,0.2,0.1,0.2,0.2v4.8
			c0,0.1,0,0.1,0.1,0.1h2.1c0.1,0,0.2,0.1,0.2,0.2v0.5C254,305.8,253.9,305.9,253.8,305.9z"/>
		<path class="st0" d="M256.2,305.9h-0.6c-0.1,0-0.2-0.1-0.2-0.2v-4.8c0-0.1,0-0.1-0.1-0.1h-1.1c-0.1,0-0.2-0.1-0.2-0.2v-0.5
			c0-0.1,0.1-0.2,0.2-0.2h3.3c0.1,0,0.2,0.1,0.2,0.2v0.5c0,0.1-0.1,0.2-0.2,0.2h-1.1c-0.1,0-0.1,0-0.1,0.1v4.8
			C256.4,305.8,256.3,305.9,256.2,305.9z"/>
	</g>
	<g>
		<path class="st0" d="M567.3,305.9h-0.6c-0.1,0-0.1-0.1-0.1-0.2l1.6-5.5c0-0.1,0.1-0.2,0.2-0.2h0.9c0.1,0,0.2,0.1,0.2,0.2l1.6,5.5
			c0,0.1,0,0.2-0.1,0.2h-0.6c-0.1,0-0.1,0-0.1,0c0,0,0-0.1,0-0.1l-0.3-1.2h-2l-0.3,1.2C567.4,305.8,567.4,305.9,567.3,305.9z
			 M568.8,300.9l-0.8,2.9h1.6L568.8,300.9L568.8,300.9z"/>
		<path class="st0" d="M575.2,305.9h-2.9c-0.1,0-0.2-0.1-0.2-0.2v-5.5c0-0.1,0.1-0.2,0.2-0.2h0.6c0.1,0,0.2,0.1,0.2,0.2v4.8
			c0,0.1,0,0.1,0.1,0.1h2.1c0.1,0,0.2,0.1,0.2,0.2v0.5C575.4,305.8,575.3,305.9,575.2,305.9z"/>
		<path class="st0" d="M577.6,305.9h-0.6c-0.1,0-0.2-0.1-0.2-0.2v-4.8c0-0.1,0-0.1-0.1-0.1h-1.1c-0.1,0-0.2-0.1-0.2-0.2v-0.5
			c0-0.1,0.1-0.2,0.2-0.2h3.3c0.1,0,0.2,0.1,0.2,0.2v0.5c0,0.1-0.1,0.2-0.2,0.2h-1.1c-0.1,0-0.1,0-0.1,0.1v4.8
			C577.8,305.8,577.7,305.9,577.6,305.9z"/>
		<path class="st0" d="M584.4,305.9h-1c-0.4,0-0.8-0.1-1-0.4s-0.4-0.6-0.4-1v-3c0-0.4,0.1-0.8,0.4-1c0.2-0.2,0.6-0.4,1-0.4h1
			c0.4,0,0.8,0.1,1,0.4c0.2,0.2,0.4,0.6,0.4,1v0.3c0,0.1-0.1,0.2-0.2,0.2H585c-0.1,0-0.2-0.1-0.2-0.2v-0.3c0-0.4-0.2-0.7-0.6-0.7
			h-0.7c-0.4,0-0.6,0.2-0.6,0.7v2.9c0,0.4,0.2,0.7,0.6,0.7h0.7c0.4,0,0.6-0.2,0.6-0.7v-0.8c0-0.1,0-0.1-0.1-0.1h-0.7
			c-0.1,0-0.2-0.1-0.2-0.2v-0.5c0-0.1,0.1-0.2,0.2-0.2h1.5c0.1,0,0.2,0.1,0.2,0.2v1.5c0,0.4-0.1,0.8-0.4,1S584.8,305.9,584.4,305.9z
			"/>
		<path class="st0" d="M587.8,305.9h-0.6c-0.1,0-0.2-0.1-0.2-0.2v-5.5c0-0.1,0.1-0.2,0.2-0.2h2.1c0.4,0,0.8,0.1,1,0.4s0.4,0.6,0.4,1
			v0.8c0,0.7-0.3,1.1-0.9,1.3v0l1,2.1c0.1,0.1,0,0.2-0.1,0.2h-0.6c-0.1,0-0.2-0.1-0.3-0.2l-1-2.1h-0.9c-0.1,0-0.1,0-0.1,0.1v2
			C587.9,305.8,587.9,305.9,587.8,305.9z M588,302.9h1.1c0.4,0,0.7-0.2,0.7-0.7v-0.8c0-0.4-0.2-0.7-0.7-0.7H588
			c-0.1,0-0.1,0-0.1,0.1L588,302.9C587.9,302.9,588,302.9,588,302.9z"/>
	</g>
	<g>
		<path class="st0" d="M630.6,305.9h-1c-0.4,0-0.8-0.1-1-0.4s-0.4-0.6-0.4-1v-3c0-0.4,0.1-0.8,0.4-1c0.2-0.2,0.6-0.4,1-0.4h1
			c0.4,0,0.8,0.1,1,0.4c0.2,0.2,0.4,0.6,0.4,1v0.4c0,0.1-0.1,0.2-0.2,0.2h-0.6c-0.1,0-0.2-0.1-0.2-0.2v-0.4c0-0.4-0.2-0.7-0.6-0.7
			h-0.8c-0.4,0-0.6,0.2-0.6,0.7v2.9c0,0.4,0.2,0.7,0.6,0.7h0.8c0.4,0,0.6-0.2,0.6-0.7V304c0-0.1,0.1-0.2,0.2-0.2h0.6
			c0.1,0,0.2,0.1,0.2,0.2v0.4c0,0.4-0.1,0.8-0.4,1S631,305.9,630.6,305.9z"/>
		<path class="st0" d="M635,305.9h-0.6c-0.1,0-0.2-0.1-0.2-0.2v-4.8c0-0.1,0-0.1-0.1-0.1h-1.1c-0.1,0-0.2-0.1-0.2-0.2v-0.5
			c0-0.1,0.1-0.2,0.2-0.2h3.3c0.1,0,0.2,0.1,0.2,0.2v0.5c0,0.1-0.1,0.2-0.2,0.2h-1.1c-0.1,0-0.1,0-0.1,0.1v4.8
			C635.2,305.8,635.1,305.9,635,305.9z"/>
		<path class="st0" d="M638.4,305.9h-0.6c-0.1,0-0.2-0.1-0.2-0.2v-5.5c0-0.1,0.1-0.2,0.2-0.2h2.1c0.4,0,0.8,0.1,1,0.4s0.4,0.6,0.4,1
			v0.8c0,0.7-0.3,1.1-0.9,1.3v0l1,2.1c0.1,0.1,0,0.2-0.1,0.2h-0.6c-0.1,0-0.2-0.1-0.3-0.2l-1-2.1h-0.9c-0.1,0-0.1,0-0.1,0.1v2
			C638.5,305.8,638.5,305.9,638.4,305.9z M638.6,302.9h1.1c0.4,0,0.7-0.2,0.7-0.7v-0.8c0-0.4-0.2-0.7-0.7-0.7h-1.1
			c-0.1,0-0.1,0-0.1,0.1L638.6,302.9C638.5,302.9,638.5,302.9,638.6,302.9z"/>
		<path class="st0" d="M645.8,305.9h-2.9c-0.1,0-0.2-0.1-0.2-0.2v-5.5c0-0.1,0.1-0.2,0.2-0.2h0.6c0.1,0,0.2,0.1,0.2,0.2v4.8
			c0,0.1,0,0.1,0.1,0.1h2.1c0.1,0,0.2,0.1,0.2,0.2v0.5C645.9,305.8,645.9,305.9,645.8,305.9z"/>
	</g>
	<g>
		<path class="st0" d="M685.6,323.9h-0.4c-0.1,0-0.1,0-0.1-0.1v-5.5c0-0.1,0-0.1,0.1-0.1h0.4c0.1,0,0.1,0,0.1,0.1v2.4
			c0,0.1,0,0.1,0.1,0.1h2.2c0.1,0,0.1,0,0.1-0.1v-2.4c0-0.1,0-0.1,0.1-0.1h0.4c0.1,0,0.1,0,0.1,0.1v5.5c0,0.1,0,0.1-0.1,0.1h-0.4
			c-0.1,0-0.1,0-0.1-0.1v-2.4c0-0.1,0-0.1-0.1-0.1h-2.2c-0.1,0-0.1,0-0.1,0.1v2.4C685.7,323.8,685.6,323.9,685.6,323.9z"/>
		<path class="st0" d="M692.6,323.9h-1.1c-0.4,0-0.7-0.1-1-0.4c-0.2-0.2-0.4-0.6-0.4-1v-3.1c0-0.4,0.1-0.7,0.4-1
			c0.2-0.2,0.6-0.4,1-0.4h1.1c0.4,0,0.7,0.1,1,0.4c0.2,0.2,0.4,0.6,0.4,1v3.1c0,0.4-0.1,0.7-0.4,1
			C693.3,323.7,693,323.9,692.6,323.9z M691.6,323.3h0.9c0.5,0,0.8-0.3,0.8-0.8v-3.1c0-0.5-0.3-0.8-0.8-0.8h-0.9
			c-0.5,0-0.7,0.3-0.7,0.8v3.1C690.8,323,691.1,323.3,691.6,323.3z"/>
		<path class="st0" d="M699.4,318.1h0.7c0.1,0,0.1,0,0.1,0.1v5.5c0,0.1,0,0.1-0.1,0.1h-0.4c-0.1,0-0.1,0-0.1-0.1V319h0l-1.4,3.5
			c0,0.1-0.1,0.1-0.2,0.1h-0.4c-0.1,0-0.1,0-0.2-0.1l-1.4-3.5h0v4.8c0,0.1,0,0.1-0.1,0.1h-0.4c-0.1,0-0.1,0-0.1-0.1v-5.5
			c0-0.1,0-0.1,0.1-0.1h0.7c0.1,0,0.1,0,0.1,0.1l1.5,3.7h0l1.5-3.7C699.3,318.1,699.4,318.1,699.4,318.1z"/>
		<path class="st0" d="M704.7,323.9h-2.8c-0.1,0-0.1,0-0.1-0.1v-5.5c0-0.1,0-0.1,0.1-0.1h2.8c0.1,0,0.1,0,0.1,0.1v0.3
			c0,0.1,0,0.1-0.1,0.1h-2.2c-0.1,0-0.1,0-0.1,0.1v1.8c0,0.1,0,0.1,0.1,0.1h1.9c0.1,0,0.1,0,0.1,0.1v0.3c0,0.1,0,0.1-0.1,0.1h-1.9
			c-0.1,0-0.1,0-0.1,0.1v1.9c0,0.1,0,0.1,0.1,0.1h2.2c0.1,0,0.1,0,0.1,0.1v0.3C704.9,323.8,704.8,323.9,704.7,323.9z"/>
	</g>
	<g>
		<path class="st0" d="M807.2,323.9h-2.8c-0.1,0-0.1,0-0.1-0.1v-5.5c0-0.1,0-0.1,0.1-0.1h2.8c0.1,0,0.1,0,0.1,0.1v0.3
			c0,0.1,0,0.1-0.1,0.1H805c-0.1,0-0.1,0-0.1,0.1v1.8c0,0.1,0,0.1,0.1,0.1h1.9c0.1,0,0.1,0,0.1,0.1v0.3c0,0.1,0,0.1-0.1,0.1H805
			c-0.1,0-0.1,0-0.1,0.1v1.9c0,0.1,0,0.1,0.1,0.1h2.2c0.1,0,0.1,0,0.1,0.1v0.3C807.3,323.8,807.3,323.9,807.2,323.9z"/>
		<path class="st0" d="M809.2,323.9h-0.4c-0.1,0-0.1,0-0.1-0.1v-5.5c0-0.1,0-0.1,0.1-0.1h0.4c0.1,0,0.1,0,0.1,0.1l2.5,4.4h0v-4.3
			c0-0.1,0-0.1,0.1-0.1h0.4c0.1,0,0.1,0,0.1,0.1v5.5c0,0.1,0,0.1-0.1,0.1H812c-0.1,0-0.1,0-0.2-0.1l-2.5-4.3h0v4.3
			C809.3,323.8,809.3,323.9,809.2,323.9z"/>
		<path class="st0" d="M814,323.7v-5.5c0-0.1,0-0.1,0.1-0.1h2.2c0.4,0,0.7,0.1,1,0.4c0.2,0.2,0.4,0.6,0.4,1v3.1c0,0.4-0.1,0.7-0.4,1
			s-0.6,0.4-1,0.4h-2.2C814,323.9,814,323.8,814,323.7z M814.7,323.3h1.5c0.5,0,0.8-0.3,0.8-0.8v-3.1c0-0.5-0.3-0.8-0.8-0.8h-1.5
			c-0.1,0-0.1,0-0.1,0.1L814.7,323.3C814.6,323.3,814.7,323.3,814.7,323.3z"/>
	</g>
	<g>
		<path class="st0" d="M805.8,103.1v5.5c0,0.1,0,0.1-0.1,0.1h-0.4c-0.1,0-0.1,0-0.1-0.1v-5.5c0-0.1,0-0.1,0.1-0.1h0.4
			C805.7,102.9,805.8,103,805.8,103.1z"/>
		<path class="st0" d="M807.7,108.7h-0.4c-0.1,0-0.1,0-0.1-0.1v-5.5c0-0.1,0-0.1,0.1-0.1h0.4c0.1,0,0.1,0,0.1,0.1l2.5,4.4h0v-4.3
			c0-0.1,0-0.1,0.1-0.1h0.4c0.1,0,0.1,0,0.1,0.1v5.5c0,0.1,0,0.1-0.1,0.1h-0.3c-0.1,0-0.1,0-0.2-0.1l-2.5-4.3h0v4.3
			C807.8,108.7,807.8,108.7,807.7,108.7z"/>
		<path class="st0" d="M812.3,107.4v-0.3c0-0.1,0-0.1,0.1-0.1h0.4c0.1,0,0.1,0,0.1,0.1v0.2c0,0.5,0.3,0.8,0.8,0.8h0.8
			c0.5,0,0.8-0.3,0.8-0.8V107c0-0.4-0.4-0.7-1.1-0.8c-0.3-0.1-0.6-0.1-0.9-0.2c-0.3-0.1-0.6-0.2-0.8-0.4s-0.3-0.5-0.3-0.9v-0.4
			c0-0.4,0.1-0.7,0.4-1c0.2-0.2,0.6-0.4,1-0.4h1c0.4,0,0.7,0.1,1,0.4c0.2,0.2,0.4,0.6,0.4,1v0.2c0,0.1,0,0.1-0.1,0.1h-0.4
			c-0.1,0-0.1,0-0.1-0.1v-0.2c0-0.5-0.3-0.8-0.8-0.8h-0.8c-0.5,0-0.8,0.3-0.8,0.9v0.4c0,0.3,0.2,0.5,0.6,0.6c0.2,0,0.4,0.1,0.6,0.1
			s0.4,0.1,0.7,0.2s0.4,0.1,0.6,0.2c0.2,0.1,0.3,0.2,0.4,0.4c0.1,0.2,0.2,0.4,0.2,0.7v0.4c0,0.4-0.1,0.7-0.4,1
			c-0.2,0.2-0.6,0.4-1,0.4h-1c-0.4,0-0.7-0.1-1-0.4C812.4,108.1,812.3,107.8,812.3,107.4z"/>
	</g>
	<path class="st0" d="M814.5,254.5l-3.2-3.2c-0.2-0.2-0.5-0.2-0.7,0l-3.2,3.2c-0.1,0.1-0.1,0.2-0.1,0.4c0,0.1,0,0.1,0,0.2
		c0.1,0.2,0.3,0.3,0.5,0.3h1.5v3.2c0,0.3,0.2,0.5,0.5,0.5v0h2.6v0c0.3,0,0.5-0.2,0.5-0.5v-3.2h1.5c0.2,0,0.4-0.1,0.5-0.3
		C814.7,254.9,814.6,254.6,814.5,254.5z M811.7,254.3v3.7h-1.5v-3.7h-1.3l2-2l2,2H811.7z"/>
	<g>
		<path class="st0" d="M742.8,304.2h-0.4c-0.1,0-0.1,0-0.1-0.1v-4.9c0-0.1,0-0.1,0.1-0.1h1.9c0.4,0,0.7,0.1,0.9,0.3s0.3,0.5,0.3,0.9
			v0.9c0,0.4-0.1,0.7-0.3,0.9s-0.5,0.3-0.9,0.3H743c-0.1,0-0.1,0-0.1,0.1v1.7C742.9,304.2,742.9,304.2,742.8,304.2z M743,301.8h1.2
			c0.4,0,0.7-0.2,0.7-0.7v-0.8c0-0.5-0.2-0.7-0.7-0.7H743c-0.1,0-0.1,0-0.1,0.1L743,301.8C742.9,301.8,742.9,301.8,743,301.8z"/>
		<path class="st0" d="M746.4,304.2H746c-0.1,0-0.1,0-0.1-0.1l1.5-4.9c0-0.1,0.1-0.1,0.2-0.1h0.6c0.1,0,0.1,0,0.2,0.1l1.5,4.9
			c0,0.1,0,0.1-0.1,0.1h-0.4c-0.1,0-0.1,0-0.1-0.1l-0.4-1.2h-1.9l-0.4,1.2C746.5,304.2,746.5,304.2,746.4,304.2z M747.9,299.7
			l-0.8,2.8h1.7L747.9,299.7L747.9,299.7z"/>
		<path class="st0" d="M752.7,304.2h-0.9c-0.4,0-0.7-0.1-0.9-0.3s-0.3-0.5-0.3-0.9v-2.8c0-0.4,0.1-0.7,0.3-0.9s0.5-0.3,0.9-0.3h0.9
			c0.4,0,0.7,0.1,0.9,0.3s0.3,0.5,0.3,0.9v0.3c0,0.1,0,0.1-0.1,0.1h-0.4c-0.1,0-0.1,0-0.1-0.1v-0.3c0-0.5-0.2-0.7-0.7-0.7h-0.7
			c-0.4,0-0.7,0.2-0.7,0.7v2.7c0,0.5,0.2,0.7,0.7,0.7h0.7c0.4,0,0.7-0.2,0.7-0.7v-0.9c0-0.1,0-0.1-0.1-0.1h-0.8
			c-0.1,0-0.1,0-0.1-0.1v-0.3c0-0.1,0-0.1,0.1-0.1h1.3c0.1,0,0.2,0.1,0.2,0.2v1.3c0,0.4-0.1,0.7-0.3,0.9S753,304.2,752.7,304.2z"/>
		<path class="st0" d="M757.6,304.2h-2.5c-0.1,0-0.1,0-0.1-0.1v-4.9c0-0.1,0-0.1,0.1-0.1h2.5c0.1,0,0.1,0,0.1,0.1v0.3
			c0,0.1,0,0.1-0.1,0.1h-2c-0.1,0-0.1,0-0.1,0.1v1.6c0,0,0,0.1,0.1,0.1h1.7c0.1,0,0.1,0,0.1,0.1v0.3c0,0.1,0,0.1-0.1,0.1h-1.7
			c-0.1,0-0.1,0-0.1,0.1v1.7c0,0,0,0.1,0.1,0.1h2c0.1,0,0.1,0,0.1,0.1v0.3C757.7,304.2,757.7,304.2,757.6,304.2z"/>
		<path class="st0" d="M761.9,300.7v3.6h-0.6v-3.6l-1.7,1.7v-0.8l2-2l2,2v0.8L761.9,300.7z"/>
	</g>
	<g>
		<path class="st0" d="M742.8,333.7h-0.4c-0.1,0-0.1,0-0.1-0.1v-4.9c0-0.1,0-0.1,0.1-0.1h1.9c0.4,0,0.7,0.1,0.9,0.3s0.3,0.5,0.3,0.9
			v0.9c0,0.4-0.1,0.7-0.3,0.9s-0.5,0.3-0.9,0.3H743c-0.1,0-0.1,0-0.1,0.1v1.7C742.9,333.6,742.9,333.7,742.8,333.7z M743,331.3h1.2
			c0.4,0,0.7-0.2,0.7-0.7v-0.8c0-0.5-0.2-0.7-0.7-0.7H743c-0.1,0-0.1,0-0.1,0.1L743,331.3C742.9,331.2,742.9,331.3,743,331.3z"/>
		<path class="st0" d="M746.4,333.7H746c-0.1,0-0.1,0-0.1-0.1l1.5-4.9c0-0.1,0.1-0.1,0.2-0.1h0.6c0.1,0,0.1,0,0.2,0.1l1.5,4.9
			c0,0.1,0,0.1-0.1,0.1h-0.4c-0.1,0-0.1,0-0.1-0.1l-0.4-1.2h-1.9l-0.4,1.2C746.5,333.6,746.5,333.7,746.4,333.7z M747.9,329.1
			l-0.8,2.8h1.7L747.9,329.1L747.9,329.1z"/>
		<path class="st0" d="M752.7,333.7h-0.9c-0.4,0-0.7-0.1-0.9-0.3s-0.3-0.5-0.3-0.9v-2.8c0-0.4,0.1-0.7,0.3-0.9s0.5-0.3,0.9-0.3h0.9
			c0.4,0,0.7,0.1,0.9,0.3s0.3,0.5,0.3,0.9v0.3c0,0.1,0,0.1-0.1,0.1h-0.4c-0.1,0-0.1,0-0.1-0.1v-0.3c0-0.5-0.2-0.7-0.7-0.7h-0.7
			c-0.4,0-0.7,0.2-0.7,0.7v2.7c0,0.5,0.2,0.7,0.7,0.7h0.7c0.4,0,0.7-0.2,0.7-0.7v-0.9c0-0.1,0-0.1-0.1-0.1h-0.8
			c-0.1,0-0.1,0-0.1-0.1v-0.3c0-0.1,0-0.1,0.1-0.1h1.3c0.1,0,0.2,0.1,0.2,0.2v1.3c0,0.4-0.1,0.7-0.3,0.9S753,333.7,752.7,333.7z"/>
		<path class="st0" d="M757.6,333.7h-2.5c-0.1,0-0.1,0-0.1-0.1v-4.9c0-0.1,0-0.1,0.1-0.1h2.5c0.1,0,0.1,0,0.1,0.1v0.3
			c0,0.1,0,0.1-0.1,0.1h-2c-0.1,0-0.1,0-0.1,0.1v1.6c0,0,0,0.1,0.1,0.1h1.7c0.1,0,0.1,0,0.1,0.1v0.3c0,0.1,0,0.1-0.1,0.1h-1.7
			c-0.1,0-0.1,0-0.1,0.1v1.7c0,0,0,0.1,0.1,0.1h2c0.1,0,0.1,0,0.1,0.1v0.3C757.7,333.6,757.7,333.7,757.6,333.7z"/>
		<path class="st0" d="M761.6,333.9l-2-2v-0.8l1.7,1.7v-3.6h0.6v3.6l1.7-1.7v0.8L761.6,333.9z"/>
	</g>
</g>
<g id="WIN_x2F_TUX">
	<g id="WIN">
		<rect x="188.1" y="297.7" class="st0" width="5" height="5"/>
		<rect x="193.6" y="297.7" class="st0" width="5" height="5"/>
		<rect x="188.1" y="303.2" class="st0" width="5" height="5"/>
		<rect x="193.6" y="303.2" class="st0" width="5" height="5"/>
	</g>
</g>
<g id="FN_Commands">
	<g>
		<rect x="421.5" y="58" class="st0" width="3.2" height="1"/>
		<path class="st0" d="M415.1,59.9h-0.3c-0.3,0-0.5-0.2-0.5-0.5v-1.8c0-0.3,0.2-0.5,0.5-0.5h0.3V59.9z M415.9,59.9l2.5,1.6
			c0.2,0.1,0.5,0,0.5-0.3v-5.4c0-0.2-0.3-0.4-0.5-0.3l-2.5,1.6V59.9z"/>
	</g>
	<g>
		<polygon class="st0" points="472.1,58 472.1,56.7 473.1,56.7 473.1,58 474.3,58 474.3,59 473.1,59 473.1,60.3 472.1,60.3 
			472.1,59 470.8,59 470.8,58 		"/>
		<path class="st0" d="M464.3,59.9H464c-0.3,0-0.5-0.2-0.5-0.5v-1.8c0-0.3,0.2-0.5,0.5-0.5h0.3V59.9z M465.1,59.9l2.5,1.6
			c0.2,0.1,0.5,0,0.5-0.3v-5.4c0-0.2-0.3-0.4-0.5-0.3l-2.5,1.6V59.9z"/>
	</g>
	<g>
		<path class="st0" d="M121.2,56.9l0.5-0.5c0.1-0.1,0.4-0.1,0.5,0c0.1,0.1,0.1,0.4,0,0.5l-0.5,0.5C121.5,57.2,121.4,57.1,121.2,56.9
			 M118,56.9l0.5,0.5c0.1-0.2,0.3-0.4,0.5-0.5l-0.5-0.5c-0.1-0.1-0.4-0.1-0.5,0C117.9,56.5,117.9,56.8,118,56.9 M122,58.5
			c0,0.1,0,0.2,0,0.4h0.8c0.2,0,0.4-0.2,0.4-0.4c0-0.2-0.2-0.3-0.4-0.4H122C122,58.3,122,58.4,122,58.5 M119.8,56.6
			c0.1,0,0.2,0,0.4,0c0.1,0,0.2,0,0.4,0v-0.8c0-0.2-0.2-0.4-0.4-0.4c-0.2,0-0.4,0.2-0.4,0.4L119.8,56.6z M122.2,60.1l-0.5-0.5
			c-0.1,0.2-0.3,0.4-0.5,0.5l0.5,0.5c0,0,0.1,0.1,0.1,0.1c0.1,0.1,0.3,0,0.4-0.1C122.3,60.4,122.3,60.2,122.2,60.1 M120.5,60.3
			c-0.1,0-0.2,0-0.4,0c-0.1,0-0.2,0-0.4,0v0.8c0,0.1,0.1,0.3,0.2,0.3c0,0,0.1,0,0.1,0c0.2,0,0.4-0.2,0.4-0.4V60.3z M118.5,59.5
			l-0.5,0.5c-0.1,0.1-0.1,0.4,0,0.5c0,0,0.1,0.1,0.1,0.1c0.1,0.1,0.3,0,0.4-0.1L119,60C118.9,59.9,118.7,59.7,118.5,59.5
			 M118.2,58.5c0-0.1,0-0.2,0-0.4h-0.8c-0.2,0-0.4,0.2-0.4,0.4c0,0.1,0.1,0.3,0.2,0.3c0,0,0.1,0,0.1,0h0.8
			C118.2,58.7,118.2,58.6,118.2,58.5 M120.1,57.2c-0.7,0-1.3,0.6-1.3,1.3c0,0.7,0.6,1.3,1.3,1.3c0.7,0,1.3-0.6,1.3-1.3
			C121.4,57.8,120.8,57.2,120.1,57.2"/>
		<rect x="125" y="58" class="st0" width="3.2" height="1"/>
	</g>
	<g>
		<path class="st0" d="M170.4,56.9l0.5-0.5c0.1-0.1,0.4-0.1,0.5,0c0.1,0.1,0.1,0.4,0,0.5l-0.5,0.5C170.8,57.2,170.6,57.1,170.4,56.9
			 M167.3,56.9l0.5,0.5c0.1-0.2,0.3-0.4,0.5-0.5l-0.5-0.5c-0.1-0.1-0.4-0.1-0.5,0C167.1,56.5,167.1,56.8,167.3,56.9 M171.2,58.5
			c0,0.1,0,0.2,0,0.4h0.8c0.2,0,0.4-0.2,0.4-0.4c0-0.2-0.2-0.3-0.4-0.4h-0.8C171.2,58.3,171.2,58.4,171.2,58.5 M169,56.6
			c0.1,0,0.2,0,0.4,0c0.1,0,0.2,0,0.4,0v-0.8c0-0.2-0.2-0.4-0.4-0.4c-0.2,0-0.4,0.2-0.4,0.4L169,56.6z M171.5,60.1l-0.5-0.5
			c-0.1,0.2-0.3,0.4-0.5,0.5l0.5,0.5c0,0,0.1,0.1,0.1,0.1c0.1,0.1,0.3,0,0.4-0.1C171.6,60.4,171.6,60.2,171.5,60.1 M169.7,60.3
			c-0.1,0-0.2,0-0.4,0c-0.1,0-0.2,0-0.4,0v0.8c0,0.1,0.1,0.3,0.2,0.3c0,0,0.1,0,0.1,0c0.2,0,0.4-0.2,0.4-0.4V60.3z M167.8,59.5
			l-0.5,0.5c-0.1,0.1-0.1,0.4,0,0.5c0,0,0.1,0.1,0.1,0.1c0.1,0.1,0.3,0,0.4-0.1l0.5-0.5C168.1,59.9,167.9,59.7,167.8,59.5
			 M167.5,58.5c0-0.1,0-0.2,0-0.4h-0.8c-0.2,0-0.4,0.2-0.4,0.4c0,0.1,0.1,0.3,0.2,0.3c0,0,0.1,0,0.1,0h0.8
			C167.5,58.7,167.5,58.6,167.5,58.5 M169.4,57.2c-0.7,0-1.3,0.6-1.3,1.3c0,0.7,0.6,1.3,1.3,1.3c0.7,0,1.3-0.6,1.3-1.3
			C170.6,57.8,170.1,57.2,169.4,57.2"/>
		<polygon class="st0" points="175.6,58 175.6,56.7 176.6,56.7 176.6,58 177.9,58 177.9,59 176.6,59 176.6,60.3 175.6,60.3 
			175.6,59 174.3,59 174.3,58 		"/>
	</g>
	<g>
		<path class="st0" d="M516.3,60.6h-2c-0.1,0-0.1,0-0.1,0.1v1.1c0,0.1,0,0.1,0.1,0.1h1.1L516.3,60.6z"/>
		<path class="st0" d="M519.9,55.1h-5.5c-0.1,0-0.1,0.1-0.1,0.1v4.6c0,0.1,0.1,0.1,0.1,0.1h2.3L519.9,55.1z"/>
		<path class="st0" d="M520.8,55.1l-0.2,0.4h0.4h1.2v4.1h-3.9h-0.4l-0.2,0.4h4.8c0.1,0,0.1-0.1,0.1-0.1v-4.7c0-0.1-0.1-0.1-0.1-0.1
			H520.8z"/>
		<path class="st0" d="M522.4,60.6h-1.8h-1.8c-0.1,0-0.1,0.1-0.1,0.1v1.1c0,0.1,0.1,0.1,0.1,0.1h1.8h1.8c0.1,0,0.1-0.1,0.1-0.1v-1.1
			C522.5,60.6,522.5,60.6,522.4,60.6 M522.2,61.5h-1.6h-1.5v-0.5h1.5h1.6V61.5z"/>
		<path class="st0" d="M516.6,61.5h1.1v-0.5l-0.7,0l0.2-0.4l0.7,0c0.1,0,0.1,0.1,0.1,0.1v1.1c0,0.1-0.1,0.1-0.1,0.1h-1.6L516.6,61.5
			z"/>
	</g>
	<path id="SLEEP_00000123430291559094708990000015828712103183998101_" class="st0" d="M668.6,60.1c-1.6,0-2.8-1.2-2.8-2.7
		c0-0.7,0.4-1.5,0.9-2c0.1-0.1,0-0.3-0.1-0.3c-1.7,0.2-3,1.6-3,3.3c0,1.8,1.5,3.3,3.4,3.3c1.3,0,2.4-0.7,3-1.7
		c0.1-0.1-0.1-0.3-0.2-0.2C669.4,60,669,60.1,668.6,60.1z"/>
	<g>
		<path class="st0" d="M567.2,58l-0.9-0.9l0.6-0.6l0.9,0.9l0.9-0.9l0.6,0.6l-0.9,0.9l0.9,0.9l-0.6,0.6l-0.9-0.9l-0.9,0.9l-0.6-0.6
			L567.2,58z"/>
		<path class="st0" d="M572.7,55.1H563c-0.1,0-0.2,0.1-0.2,0.2v5.9c0,0.1,0.1,0.2,0.2,0.2h1.3v0.3c0,0.1,0.1,0.1,0.1,0.1h6.9
			c0.1,0,0.1-0.1,0.1-0.1v-0.3h1.3c0.1,0,0.2-0.1,0.2-0.2v-5.9C572.9,55.2,572.8,55.1,572.7,55.1z M572.2,60.2h-8.7v-4.4h8.7V60.2z"
			/>
	</g>
	<path class="st1" d="M615.5,62.4h1.1l2.2-3.3h2.3c0.3,0,0.6-0.2,0.6-0.6c0-0.3-0.2-0.6-0.6-0.6h-2.3l-2.2-3.3h-1.1l1.2,3.3h-2.2
		l-0.8-1.1H613l0.6,1.7l-0.6,1.7h0.7l0.8-1.1h2.2L615.5,62.4z"/>
	<g>
		<path class="st0" d="M225.3,57c-0.8-1.4-2.4-2.3-4-2.2c-1.6,0.1-3,1-3.7,2.4c-0.7,1.3-0.5,3,0.3,4.2l0.4-0.3
			c-0.4-0.5-0.6-1.2-0.6-1.9c0-0.7,0.2-1.3,0.5-1.8l1.2,0.3l-0.5-1.1c0.5-0.4,1.1-0.7,1.8-0.8l0.5,1.1l0.5-1.1
			c0.7,0.1,1.3,0.4,1.8,0.8l-0.5,1.1l1.2-0.3c0.3,0.5,0.5,1.1,0.5,1.8c0,0.7-0.2,1.3-0.6,1.9l1.1,0.7
			C226.2,60.3,226.2,58.4,225.3,57z"/>
		<path class="st0" d="M221.6,60l0.1-0.2l-0.4-1.7l-0.4,1.7L221,60c-0.5,0.1-0.8,0.5-0.8,1.1c0,0.6,0.5,1.1,1.1,1.1
			c0.6,0,1.1-0.5,1.1-1.1C222.5,60.5,222.1,60.1,221.6,60z"/>
	</g>
	<g>
		<g>
			<g>
				<polygon class="st0" points="373,58.5 372.1,57.5 372.7,56.9 373.7,57.8 374.6,56.9 375.2,57.5 374.3,58.5 375.2,59.4 
					374.6,60.1 373.7,59.1 372.7,60.1 372.1,59.4 				"/>
			</g>
		</g>
		<path class="st0" d="M365.6,59.9h-0.3c-0.3,0-0.5-0.2-0.5-0.5v-1.8c0-0.3,0.2-0.5,0.5-0.5h0.3V59.9z M366.4,59.9l2.5,1.6
			c0.2,0.1,0.5,0,0.5-0.3v-5.4c0-0.2-0.3-0.4-0.5-0.3l-2.5,1.6V59.9z"/>
	</g>
	<g>
		<path class="st0" d="M304.8,302.8c0.2,0,0.3,0,0.5,0v-2.1c0-0.3-0.2-0.6-0.5-0.6c-0.3,0-0.5,0.3-0.5,0.6v2.1
			C304.5,302.8,304.6,302.8,304.8,302.8z"/>
		<path class="st0" d="M306.6,303.5c0.1,0.1,0.2,0.2,0.3,0.4l1.5-1.5c0.2-0.2,0.3-0.6,0.1-0.8c-0.2-0.2-0.5-0.1-0.8,0.1l-1.5,1.5
			C306.4,303.3,306.5,303.4,306.6,303.5z"/>
		<path class="st0" d="M303,303.5c-0.1,0.1-0.2,0.2-0.3,0.4l-1.5-1.5c-0.2-0.2-0.3-0.6-0.1-0.8c0.2-0.2,0.5-0.1,0.8,0.1l1.5,1.5
			C303.2,303.3,303.1,303.4,303,303.5z"/>
		<path id="leer_2_" class="st0" d="M308.9,305.3c0-0.3-0.3-0.5-0.6-0.5h-6.9c-0.3,0-0.6,0.2-0.6,0.5c0,0.3,0.3,0.5,0.6,0.5h6.9
			C308.6,305.8,308.9,305.6,308.9,305.3z"/>
	</g>
	<path class="st1" d="M815.2,57.9c-0.6,0-1.1-0.1-1.6-0.3c-0.5-0.2-1-0.5-1.4-0.9c-0.4-0.4-0.7-0.9-0.9-1.4
		c-0.2-0.5-0.3-1.1-0.3-1.6c0-0.3,0-0.6,0.1-0.9c0.1-0.3,0.2-0.6,0.3-0.9c0.1-0.3,0.3-0.6,0.5-0.8c0.2-0.2,0.4-0.5,0.7-0.7
		c0.1-0.1,0.3-0.1,0.4-0.1c0.2,0,0.4,0.1,0.5,0.2c0.1,0.1,0.2,0.3,0.1,0.5c0,0.2-0.1,0.3-0.2,0.4c-0.2,0.1-0.3,0.3-0.5,0.5
		c-0.1,0.2-0.3,0.4-0.3,0.5c-0.1,0.2-0.2,0.4-0.2,0.6c0,0.2-0.1,0.4-0.1,0.6c0,0.4,0.1,0.8,0.2,1.1c0.1,0.3,0.4,0.7,0.6,0.9
		c0.3,0.3,0.6,0.5,0.9,0.6c0.4,0.1,0.7,0.2,1.1,0.2c0.4,0,0.8-0.1,1.1-0.2c0.4-0.1,0.7-0.4,0.9-0.6c0.3-0.3,0.5-0.6,0.6-0.9
		c0.1-0.4,0.2-0.7,0.2-1.1c0-0.2,0-0.4-0.1-0.6c0-0.2-0.1-0.4-0.2-0.6c-0.1-0.2-0.2-0.4-0.3-0.5c-0.1-0.2-0.3-0.3-0.5-0.5
		c-0.1-0.1-0.2-0.3-0.2-0.4c0-0.2,0-0.3,0.1-0.5c0.1-0.1,0.3-0.2,0.4-0.2c0,0,0,0,0,0c0.2,0,0.3,0.1,0.5,0.1
		c0.2,0.2,0.5,0.4,0.7,0.7c0.2,0.2,0.4,0.5,0.5,0.8c0.1,0.3,0.2,0.6,0.3,0.9c0.1,0.3,0.1,0.6,0.1,0.9c0,0.6-0.1,1.1-0.3,1.6
		c-0.2,0.5-0.5,1-0.9,1.4c-0.4,0.4-0.9,0.7-1.4,0.9C816.3,57.8,815.7,57.9,815.2,57.9z M815.2,52.8c-0.2,0-0.3-0.1-0.5-0.2
		c-0.1-0.1-0.2-0.3-0.2-0.5v-2.3c0-0.2,0.1-0.3,0.2-0.5c0.1-0.1,0.3-0.2,0.5-0.2c0.2,0,0.3,0.1,0.5,0.2c0.1,0.1,0.2,0.3,0.2,0.5v2.3
		c0,0.2-0.1,0.3-0.2,0.5C815.5,52.7,815.4,52.8,815.2,52.8z"/>
</g>
</svg>
